<?xml version="1.0" ?><!DOCTYPE svg  PUBLIC '-//W3C//DTD SVG 1.1//EN'  'http://www.w3.org/Graphics/SVG/1.1/DTD/svg11.dtd'><svg height="18.7998mm" style="shape-rendering:geometricPrecision; text-rendering:geometricPrecision; image-rendering:optimizeQuality; fill-rule:evenodd; clip-rule:evenodd" version="1.1" viewBox="0 0 4272 1880" width="42.7169mm" xml:space="preserve" xmlns="http://www.w3.org/2000/svg" xmlns:xlink="http://www.w3.org/1999/xlink"><defs><style type="text/css">
   <![CDATA[
    .fil0 {fill:black;fill-rule:nonzero}
   ]]>
  </style></defs><g id="Layer_x0020_1"><path class="fil0" d="M62 1396l-61 -297c-2,-7 -1,-14 3,-19l0 0c0,-1 233,-396 587,-499 320,-93 736,-127 801,-132 53,-46 414,-344 764,-404 208,-36 601,-55 956,-40 282,13 542,47 669,112 194,100 256,167 275,200 50,8 207,43 214,170 4,62 0,198 -7,328 -8,143 -20,281 -28,311 -6,19 -17,26 -34,21 -22,-6 -21,-25 -18,-58 5,-73 18,-266 -27,-370 -22,-50 -60,-77 -126,-48 -258,113 -239,542 -239,543 0,13 -8,23 -20,27l0 0 -1318 351c-14,4 -28,-4 -32,-18 -1,-5 -1,-9 0,-13 5,-27 146,-763 -225,-630 -402,144 -365,718 -365,719 1,14 -9,26 -22,28l0 0c-1,0 -502,86 -877,50 -194,-18 -409,-46 -574,-73 -156,-27 -271,-55 -290,-79 -12,-15 -25,-36 -34,-58 -7,-19 -12,-39 -10,-58 2,-22 11,-42 31,-58l0 0c2,-2 5,-4 7,-6zm-8 -298l63 305c4,13 -2,27 -15,32 -6,2 -11,5 -14,8l0 0 0 0c-7,5 -11,13 -11,21 -1,11 2,23 6,35 7,17 17,32 26,44 10,13 113,35 258,59 164,28 377,56 570,74 321,30 739,-31 840,-46 -2,-115 12,-610 401,-749 405,-145 329,481 302,650l1258 -336c0,-93 17,-461 271,-572 102,-45 161,-3 195,75 4,9 7,18 10,27 4,-98 6,-189 4,-235 -7,-103 -173,-121 -181,-122 -14,-2 -25,-14 -24,-28 0,0 6,-41 -257,-176 -119,-61 -371,-94 -647,-106 -351,-15 -739,3 -944,39 -353,61 -722,377 -744,397 -4,4 -10,7 -17,7 -1,0 -457,31 -798,131 -305,89 -517,410 -552,466z"/><path class="fil0" d="M53 1159c-14,-4 -21,-19 -17,-33 4,-14 19,-22 33,-17 2,0 490,161 1259,122 13,0 24,8 27,20l0 0c0,1 46,178 -55,270 -55,50 -320,79 -609,57 -216,-17 -448,-61 -616,-144 -13,-7 -19,-23 -12,-36 6,-13 22,-18 35,-12 161,80 386,123 597,139 276,21 524,-1 570,-43 59,-54 50,-154 43,-197 -765,35 -1253,-126 -1255,-126z"/><path class="fil0" d="M1028 1100c12,-9 64,-53 76,-68 10,-13 165,-87 321,-159 157,-72 318,-142 338,-144 38,-4 168,11 168,11 15,2 25,15 24,29 -1,8 -5,14 -10,18l0 0c-1,1 -324,266 -405,298 -29,11 -95,22 -171,32 -143,18 -321,32 -326,32 -15,0 -26,-12 -26,-27 0,-9 4,-17 11,-22zm117 -35c-5,6 -14,15 -24,25 65,-6 159,-15 242,-25 71,-9 133,-19 157,-29 56,-22 250,-176 342,-250 -36,-3 -77,-6 -93,-5 -15,2 -169,70 -322,140 -151,69 -297,138 -302,144z"/><path class="fil0" d="M263 794c1,-14 13,-26 27,-25 15,1 26,13 26,28l-8 156c0,6 -2,10 -5,14l0 0c0,1 -77,109 -119,95 -33,-11 -69,-78 -69,-78 -7,-13 -2,-29 11,-36 13,-7 29,-2 36,11 0,0 26,49 39,53 4,2 42,-51 55,-69l7 -149z"/><path class="fil0" d="M966 514c12,-8 28,-6 37,5 9,12 7,28 -5,37 -1,1 -311,239 -336,312l0 0 0 0 0 0 0 0c1,1 8,3 18,6 20,5 48,7 80,7 96,1 221,-18 271,-35 8,-3 30,-11 61,-21 201,-72 779,-276 1177,-334 14,-2 28,8 30,22 2,15 -8,28 -23,30 -393,57 -967,261 -1167,331 -27,10 -46,17 -62,22 -54,18 -186,39 -287,38 -36,0 -69,-3 -93,-9 -33,-9 -54,-25 -57,-51 -1,-7 -1,-15 2,-23l0 0c30,-89 353,-336 354,-337z"/><path class="fil0" d="M1456 503c-14,0 -26,-12 -26,-27 1,-14 13,-26 27,-26 3,0 893,22 1186,67 27,-63 121,-257 306,-403l-741 -21c-15,-1 -26,-13 -26,-27 0,-15 13,-26 27,-26l819 24c9,0 17,4 22,12 8,12 5,28 -8,36 -244,159 -349,420 -358,442 -4,13 -16,21 -29,18 -266,-46 -1196,-69 -1199,-69z"/><path class="fil0" d="M2767 536c1,-1 198,-382 478,-414 136,-16 262,-8 370,21 111,29 203,80 269,150 10,11 10,27 -1,37l-1 1 0 0c0,0 -225,206 -1091,244 -14,0 -26,-11 -27,-26 0,-5 1,-9 3,-13l0 0zm484 -362c-199,23 -357,251 -414,346 660,-34 916,-165 987,-212 -57,-52 -133,-91 -223,-114 -101,-27 -220,-35 -350,-20z"/><path class="fil0" d="M3395 166c-12,-9 -15,-25 -6,-37 8,-12 25,-15 36,-7 1,1 115,78 117,322 0,14 -12,26 -26,26 -15,1 -27,-11 -27,-26 -2,-216 -93,-278 -94,-278z"/><path class="fil0" d="M2874 757c14,-5 29,2 34,16 5,14 -2,29 -16,34l-327 118 30 83 231 -28c14,-2 28,9 29,23 2,15 -8,28 -23,30l-251 31 0 -1c-12,2 -24,-5 -28,-17l-46 -127c-5,-14 2,-29 15,-34l352 -128z"/><path class="fil0" d="M2903 580c-8,-12 -6,-29 6,-37 12,-8 29,-5 37,6l71 102c3,4 4,8 4,12 1,1 55,439 -51,761 -4,14 -19,22 -33,17 -14,-4 -22,-19 -17,-33 95,-289 56,-678 50,-732l-67 -96z"/><path class="fil0" d="M3523 479c-12,-9 -14,-25 -6,-37 8,-12 25,-15 37,-6l187 131c7,5 11,12 11,20 2,15 21,168 -40,347 -61,180 -112,317 -112,318 -5,13 -21,20 -34,15 -14,-5 -21,-21 -15,-34 0,-1 49,-133 111,-316 50,-148 43,-275 39,-313l-178 -125z"/><path class="fil0" d="M1782 1664c-2,-14 8,-28 22,-30 15,-2 28,7 31,22 0,0 29,183 241,171 111,-7 182,-39 232,-84 51,-46 82,-107 110,-171 6,-14 22,-20 35,-14 14,6 20,22 14,35 -32,69 -65,136 -124,189 -58,53 -140,90 -264,97 -260,15 -296,-214 -297,-215z"/><path class="fil0" d="M2270 1025c-14,-4 -175,-43 -240,301 -20,105 -18,185 -4,244 13,53 35,90 61,113 24,24 52,35 75,39 15,3 27,3 36,1 31,-7 72,-35 108,-101 28,-52 52,-127 66,-233 13,-107 6,-189 -12,-248 -22,-72 -58,-108 -87,-115 -1,0 -2,0 -3,-1zm-292 291c76,-402 290,-346 307,-341 45,11 97,59 125,151 20,65 29,154 14,270 -14,113 -41,194 -72,252 -45,82 -100,116 -142,126 -15,4 -35,5 -58,0 -31,-6 -69,-21 -102,-52 -32,-30 -60,-75 -76,-140 -15,-66 -17,-152 4,-266z"/><path class="fil0" d="M4057 739c-7,-3 -78,-25 -113,236 -17,119 -9,197 7,245l1 3c9,24 20,40 31,51 9,9 19,13 26,14 3,0 5,0 6,0l0 0 0 0c14,-5 33,-25 53,-76 15,-41 29,-101 37,-186 9,-86 5,-152 -5,-199 -11,-55 -27,-82 -39,-87 -1,0 -2,0 -4,-1zm-166 229c44,-322 170,-284 187,-277 28,10 59,50 74,125 11,52 15,123 6,215 -9,90 -24,155 -41,200 -26,68 -59,98 -85,107l0 0c-8,2 -19,4 -30,2 -17,-2 -37,-10 -55,-28 -17,-15 -33,-39 -45,-72 0,-1 0,-2 -1,-2 -19,-56 -27,-141 -10,-270z"/><path class="fil0" d="M3677 1257c-3,-14 6,-28 21,-31 14,-3 28,6 31,21 0,0 28,152 289,110 10,-2 45,-11 80,-43 36,-33 73,-92 84,-194 1,-14 14,-25 29,-23 14,1 25,14 23,29 -12,117 -56,187 -101,227 -45,42 -91,53 -104,56l0 0 -1 0c-314,51 -351,-152 -351,-152z"/></g></svg>