<svg xmlns="http://www.w3.org/2000/svg" xmlns:xlink="http://www.w3.org/1999/xlink" width="893.788" height="685.408" viewBox="0 0 893.788 685.408">
  <defs>
    <clipPath id="clip-path">
      <path id="path1050" d="M360.947-536.244h12.118v-3.311H360.947Z"/>
    </clipPath>
  </defs>
  <g id="g10" transform="translate(-134.083 970.632)">
    <g id="g12">
      <path id="path130" d="M823.937-648.012v-8.563A12.572,12.572,0,0,0,836.5-669.133a12.573,12.573,0,0,0-12.559-12.559v-8.561a21.145,21.145,0,0,1,21.121,21.12,21.146,21.146,0,0,1-21.121,21.121" fill="#bec6db"/>
      <path id="path132" d="M755.27-648.012v-8.563a12.572,12.572,0,0,0,12.559-12.559,12.573,12.573,0,0,0-12.559-12.559v-8.561a21.145,21.145,0,0,1,21.121,21.12,21.146,21.146,0,0,1-21.121,21.121" fill="#bec6db"/>
      <path id="path134" d="M742.16-764.689a6.686,6.686,0,0,0,6.667,6.667h68a6.686,6.686,0,0,0,6.667-6.667v-12a6.686,6.686,0,0,0-6.667-6.667h-68a6.686,6.686,0,0,0-6.667,6.667v12" fill="#003ca2"/>
      <path id="path136" d="M816.382-741.133a4.012,4.012,0,0,0,4,4h4.888a4.012,4.012,0,0,0,4-4v-13.333a4.012,4.012,0,0,0-4-4h-4.888a4.012,4.012,0,0,0-4,4Z" fill="none" stroke="#ab9994" stroke-linejoin="round" stroke-miterlimit="10" stroke-width="5.333"/>
      <path id="path138" d="M816.382-702.318a4.012,4.012,0,0,0,4,4h4.888a4.012,4.012,0,0,0,4-4v-13.333a4.012,4.012,0,0,0-4-4h-4.888a4.012,4.012,0,0,0-4,4Z" fill="none" stroke="#ab9994" stroke-linejoin="round" stroke-miterlimit="10" stroke-width="5.333"/>
      <path id="path140" d="M819.049-721.725a3.9,3.9,0,0,0,3.777,4,3.9,3.9,0,0,0,3.777-4v-13.333a3.905,3.905,0,0,0-3.777-4,3.905,3.905,0,0,0-3.777,4Z" fill="none" stroke="#ab9994" stroke-linejoin="round" stroke-miterlimit="10" stroke-width="5.333"/>
      <path id="path142" d="M819.049-682.91a3.905,3.905,0,0,0,3.777,4,3.905,3.905,0,0,0,3.777-4v-13.333a3.905,3.905,0,0,0-3.777-4,3.905,3.905,0,0,0-3.777,4Z" fill="none" stroke="#ab9994" stroke-linejoin="round" stroke-miterlimit="10" stroke-width="5.333"/>
      <path id="path144" d="M785.049-875.133a4.012,4.012,0,0,0,4,4h4.888a4.012,4.012,0,0,0,4-4v-13.333a4.012,4.012,0,0,0-4-4h-4.888a4.012,4.012,0,0,0-4,4Z" fill="none" stroke="#ab9994" stroke-linejoin="round" stroke-miterlimit="10" stroke-width="5.333"/>
      <path id="path146" d="M785.049-836.318a4.012,4.012,0,0,0,4,4h4.888a4.012,4.012,0,0,0,4-4v-13.333a4.012,4.012,0,0,0-4-4h-4.888a4.012,4.012,0,0,0-4,4Z" fill="none" stroke="#ab9994" stroke-linejoin="round" stroke-miterlimit="10" stroke-width="5.333"/>
      <path id="path148" d="M787.715-855.725a3.905,3.905,0,0,0,3.777,4,3.905,3.905,0,0,0,3.777-4v-13.333a3.905,3.905,0,0,0-3.777-4,3.905,3.905,0,0,0-3.777,4Z" fill="none" stroke="#ab9994" stroke-linejoin="round" stroke-miterlimit="10" stroke-width="5.333"/>
      <path id="path150" d="M787.715-816.91a3.9,3.9,0,0,0,3.777,4,3.905,3.905,0,0,0,3.777-4v-13.333a3.905,3.905,0,0,0-3.777-4,3.905,3.905,0,0,0-3.777,4Z" fill="none" stroke="#ab9994" stroke-linejoin="round" stroke-miterlimit="10" stroke-width="5.333"/>
      <path id="path152" d="M748.826-741.133a4.012,4.012,0,0,0,4,4h4.889a4.012,4.012,0,0,0,4-4v-13.333a4.012,4.012,0,0,0-4-4h-4.889a4.012,4.012,0,0,0-4,4Z" fill="none" stroke="#ab9994" stroke-linejoin="round" stroke-miterlimit="10" stroke-width="5.333"/>
      <path id="path154" d="M748.826-702.318a4.012,4.012,0,0,0,4,4h4.889a4.012,4.012,0,0,0,4-4v-13.333a4.012,4.012,0,0,0-4-4h-4.889a4.012,4.012,0,0,0-4,4Z" fill="none" stroke="#ab9994" stroke-linejoin="round" stroke-miterlimit="10" stroke-width="5.333"/>
      <path id="path156" d="M751.493-721.725a3.9,3.9,0,0,0,3.777,4,3.905,3.905,0,0,0,3.779-4v-13.333a3.905,3.905,0,0,0-3.779-4,3.905,3.905,0,0,0-3.777,4Z" fill="none" stroke="#ab9994" stroke-linejoin="round" stroke-miterlimit="10" stroke-width="5.333"/>
      <path id="path158" d="M751.493-682.91a3.905,3.905,0,0,0,3.777,4,3.905,3.905,0,0,0,3.779-4v-13.333a3.905,3.905,0,0,0-3.779-4,3.905,3.905,0,0,0-3.777,4Z" fill="none" stroke="#ab9994" stroke-linejoin="round" stroke-miterlimit="10" stroke-width="5.333"/>
      <path id="path160" d="M755.27-648.012a21.145,21.145,0,0,1-21.12-21.121,21.144,21.144,0,0,1,21.12-21.12v8.561a12.573,12.573,0,0,0-12.557,12.559,12.572,12.572,0,0,0,12.557,12.559v8.563" fill="#bec6db"/>
      <path id="path162" d="M823.937-648.012a21.145,21.145,0,0,1-21.12-21.121,21.144,21.144,0,0,1,21.12-21.12v8.561a12.573,12.573,0,0,0-12.557,12.559,12.572,12.572,0,0,0,12.557,12.559v8.563" fill="#bec6db"/>
      <path id="path164" d="M766.826-758.022a6.686,6.686,0,0,0,6.667,6.667h22.667a6.686,6.686,0,0,0,6.667-6.667v-52a6.686,6.686,0,0,0-6.667-6.667H773.493a6.686,6.686,0,0,0-6.667,6.667v52" fill="#38343f"/>
      <path id="path166" d="M754.159-764.689a6.686,6.686,0,0,0,6.667,6.667h68a6.686,6.686,0,0,0,6.667-6.667v-12a6.686,6.686,0,0,0-6.667-6.667h-68a6.686,6.686,0,0,0-6.667,6.667v12" fill="#2274ff"/>
      <path id="path168" d="M535.224-334.349h26.768V-504.961H535.224v170.613" fill="#2274ff"/>
      <path id="path170" d="M971.787-334.349h26.768v-97.493H971.787Z" fill="#2274ff"/>
      <path id="path172" d="M971.912-410.575h26.767v-10.393H971.912Z" fill="#655556"/>
      <path id="path174" d="M971.787-396.476l26.768-8.124v-5.855H971.787v13.979" fill="#003ca2"/>
      <path id="path176" d="M970.615-420.9H1005.3v-11.309H970.615Z" fill="#6d605d"/>
      <path id="path178" d="M924.626-334.349h26.768V-504.961H924.626Z" fill="#2274ff"/>
      <path id="path180" d="M924.626-455.738l26.768-6.212v-14.337H924.626v20.549" fill="#003ca2"/>
      <path id="path182" d="M951.394-463.623H924.626v-8.027h24.561q1.122,1.352,2.207,2.812v5.215" fill="#003ca2"/>
      <path id="path184" d="M991.759-458.574h23.529v27.9c-11.149.367-16.116,0-39.5,0v39.68H933.56v-67.221l10.208-.361h47.99" fill="#5cb733"/>
      <path id="path186" d="M825.942-537.656l164.641,17.713,14.316,64.951-27.2,2.148-6.653,36.589c-6.447-40.283-21.171-67.762-50.569-67.762-29.933,0-47.145,30.992-52.1,78.41H175.014V-531.215l650.928-6.441" fill="#31716a"/>
      <path id="path188" d="M998.627-483.444l-1.6-7.252h0l1.6,7.253" fill="#b6d0c8"/>
      <path id="path190" d="M975.48-440.648l2.217-12.2,13.084-1.033L977.7-452.844l-2.217,12.2" fill="#459236"/>
      <path id="path192" d="M868.375-405.607H832.666l.1-13.807q.508.01.948.057a19.462,19.462,0,0,0,4.2.291c.409,0,.827,0,1.243-.005s.831,0,1.237,0c3.092,0,5.681.141,4.428,1.5-6.183,6.687-4.8,8.527-1.383,8.525,4.176,0,11.4-2.741,11.605-2.748,1.52,4.132,5.643,5.924,9.38,5.924a10.039,10.039,0,0,0,4.061-.8q-.05.466-.1.935c0,.047-.009.092-.015.139m102.669-10.648c-.9-5.6-1.953-10.953-3.187-16.02l3.273-3.856L964-458.868l30.405,4.705-3.628.285L977.7-452.844l-2.217,12.2-4.436,24.393M870.05-418.236c-.24-3.981.205-8.591,1.909-10.02q-1.066,4.838-1.909,10.02m133.488-36.648L997.028-490.7l1.6,7.252,6.272,28.452-1.361.108m-117.062-9.852c5.008-7.66,11.029-13.381,18.077-16.829v.911c-7.013,3.2-13.036,8.613-18.077,15.919m-196.263-26.9h-3l-.823-3.856h3.825v3.856m-6.22-15.077-.1-.472h.3l-.2.472" fill="#275953"/>
      <path id="path194" d="M933.252-482.044h-1.909v-.576c.644.176,1.283.368,1.909.576" fill="#de3f35"/>
      <path id="path196" d="M933.252-482.044h0c-.627-.208-1.265-.4-1.909-.576h0c.644.176,1.283.368,1.909.576" fill="#2b625d"/>
      <path id="path198" d="M936.4-482.044h-3.148c-.627-.208-1.265-.4-1.909-.576v-1.365a32.252,32.252,0,0,1,5.057,1.941" fill="#234d48"/>
      <path id="path200" d="M904.552-475.705a4.068,4.068,0,0,0,4.056,4.056h18.679a4.068,4.068,0,0,0,4.056-4.056v-17.8a4.068,4.068,0,0,0-4.056-4.055H908.608a4.068,4.068,0,0,0-4.056,4.055v17.8" fill="#5c4d4e"/>
      <path id="path202" d="M916.726-471.65h37.6v-10.395h-37.6Z" fill="#6d605d"/>
      <path id="path204" d="M966.942-431.195c-4.221-24.028-16.308-42.539-29.184-50.868l16.8-6.937,16.569,52.869-4.189,4.936" fill="#275953"/>
      <path id="path206" d="M868.49-406.68q.65-5.96,1.56-11.556a18.92,18.92,0,0,0,1,5.547c1.212,2.837-.164,4.937-2.559,6.009m3.469-21.576c3.259-14.792,8.088-27.168,14.515-36.477-6.113,9.351-10.716,21.591-13.827,36.1a1.86,1.86,0,0,0-.688.377M997.028-490.7l-2.8-12.707.505.079,2.295,12.628m-3.583-16.255-.5-2.255h.5v2.255" fill="#71707a"/>
      <path id="path208" d="M1003.936-452.69l-9.527-1.473,9.128-.721.4,2.195" fill="#445b39"/>
      <path id="path210" d="M868.49-406.68q.65-5.96,1.56-11.556h0q-.91,5.594-1.56,11.556h0m-77.7-5.392-.383,0v-46.673H736.577l-13.309.505v-.331H702.374a2.031,2.031,0,0,0,.276-1.025v-.139a2.819,2.819,0,0,0-2.008-2.585l-7.592-1.94-2.835-13.284v-11.687h0v-2.4h35.556a20.514,20.514,0,0,0,14,5.495h93.486l-.488,66.729-.265,0c-4.265,0-11.785,1.836-19.695,3.672s-16.207,3.672-22.021,3.672m81.173-16.184c3.259-14.792,8.091-27.172,14.516-36.48,0,0,0,0,0,0-6.427,9.309-11.256,21.685-14.515,36.477h0m122.45-25.907h0l9.128-.721h0l-9.128.721" fill="#33464c"/>
      <path id="path212" d="M997.028-490.7l-2.8-12.708h0l2.8,12.707h0m-3.583-16.256-.5-2.255h0l.5,2.255h0" fill="#5b616a"/>
      <path id="path214" d="M864.429-405.876c-3.737,0-7.86-1.792-9.38-5.924-.209.007-7.429,2.748-11.605,2.748-3.42,0-4.8-1.839,1.383-8.525,1.253-1.356-1.336-1.5-4.428-1.5-.407,0-.821,0-1.237,0s-.833.005-1.243.005a19.468,19.468,0,0,1-4.2-.291q-.44-.048-.948-.057l.488-66.729h2.563q1.114.726,2.283,1.375a39.68,39.68,0,0,0,22.972,7.3A39.57,39.57,0,0,0,898-502.423l.037.013,3.888-10.848h6.312a10.4,10.4,0,0,0,9.855-7.165l66.769,11.216h8.093l.5,2.255v3.425l.783.123,2.8,12.708,6.509,35.812-9.128.721L964-458.868,954.562-489,938-482.164v-10.249a4.068,4.068,0,0,0-4.056-4.056h-3.9a4.042,4.042,0,0,0-2.756-1.087H908.609a4.068,4.068,0,0,0-4.056,4.055v11.936c-7.048,3.448-13.069,9.169-18.077,16.829-6.425,9.308-11.257,21.688-14.516,36.48-1.7,1.429-2.149,6.039-1.909,10.02q-.91,5.594-1.56,11.556a10.039,10.039,0,0,1-4.061.8M725.768-491.637H690.212v-3.856h-3.825l-2.395-11.221.2-.472h16.345l.149,2.224a2.253,2.253,0,0,0,2.211,2.068H719.54a20.552,20.552,0,0,0,6.228,11.257" fill="#313f44"/>
      <path id="path216" d="M937.786-482.044H936.4a32.249,32.249,0,0,0-5.057-1.941V-493.5a4.045,4.045,0,0,0-1.3-2.968h3.9A4.068,4.068,0,0,1,938-492.413v10.249l-.244.1.028.019" fill="#303c41"/>
      <path id="path218" d="M904.552-481.565V-493.5a4.068,4.068,0,0,1,4.056-4.055h18.679a4.042,4.042,0,0,1,2.756,1.087,4.045,4.045,0,0,1,1.3,2.968v9.516a35.567,35.567,0,0,0-9.979-1.365,37.77,37.77,0,0,0-16.812,3.785" fill="#423c43"/>
      <path id="path220" d="M946.126-475.075a36.7,36.7,0,0,0-9.725-6.969h1.385a47.961,47.961,0,0,1,8.34,6.969" fill="#484147"/>
      <path id="path222" d="M964-458.868l-6.819-1.056a65.745,65.745,0,0,0-11.06-15.151,47.968,47.968,0,0,0-8.34-6.969l-.028-.019.244-.1L954.562-489,964-458.868" fill="#313f44"/>
      <path id="path224" d="M524.58-543.561,627.2-524.94s10.484,1.348,16.636,16.521H687.5c3.52,0,3.908,3.212,4.364,7.137l8.811,42.753H686.909l-3.636-33.092c-.456-3.925-3.708-7.136-7.227-7.136H632.382v-3.221c-6.153-15.173-16.636-16.521-16.636-16.521L492.368-539.535l32.212-4.027" fill="#9fd62b"/>
      <path id="path226" d="M966.618-458.527l3.695-33.609c.463-3.988,3.765-7.249,7.339-7.249l27.8-5.027c3.575,0,6.156-3.8,6.907,1.227.107.712,1.44-.817,3.636-.817,0,0-3.7-11.995-7.271-11.995l1.393,6.8H967.474c-3.575,0-6.877,3.263-7.34,7.248l-6.041,43.424h12.525" fill="#5cb733"/>
      <path id="path228" d="M855.291-536.315l-20.759,24.156H657.724L652-533.9h188.74l4.295-10.2,10.26,7.783" fill="#5cb733"/>
      <path id="path230" d="M984.856-509.207h23.729s1.563-7.515-7.981-9.661L845.031-544.1l-7.159,10.2,146.984,24.692" fill="#5cb733"/>
      <path id="path232" d="M735.033-391.383h29.349v-43.48H735.033Z" fill="#5cb733"/>
      <path id="path234" d="M380.814-540.351l26.241-2.928,15.96-94.181s47.529-26.68-1.153-26.68H721.986c34.076,0,53.286,29.079,53.286,29.079l80.4,84.585,150.065,25.536s11.371,1.42,17.379,18.417v7.649l-29.669-4.653v-8.364L842.729-533.9H633.146l26.74,78.061,76.69-2.911H790.4v67.757h-44.38V-430.74c-21.728,0-40.8-2.449-51.537-2.449s-134.569,2.449-141.012,2.449-8.588,50.724-8.588,50.724l2.145,5.128H346.5V-496.232c0-35.889,34.313-44.119,34.313-44.119" fill="#9fd62b"/>
      <path id="path236" d="M769.229-458.527l-3.636-33.092c-.456-3.925-3.708-7.136-7.227-7.136l-68.64,0H676.973l-.568-2.664c-.823-3.848,1.385-7,4.9-7h88.509c3.52,0,6.772,3.212,7.228,7.137l5.947,42.753H769.229" fill="#5cb733"/>
      <path id="path238" d="M547.753-411.1H669.445v-72.877H547.753Z" fill="#31716a"/>
      <path id="path240" d="M547.753-411.1v5.091H669.445a5.125,5.125,0,0,0,3.6-1.491,5.125,5.125,0,0,0,1.492-3.6v-72.877a5.119,5.119,0,0,0-1.492-3.6,5.119,5.119,0,0,0-3.6-1.491H547.753a5.122,5.122,0,0,0-3.6,1.491,5.123,5.123,0,0,0-1.491,3.6V-411.1a5.129,5.129,0,0,0,1.491,3.6,5.128,5.128,0,0,0,3.6,1.491V-411.1h5.091v-67.788h111.51v62.7h-116.6v5.089h0" fill="#31716a"/>
      <path id="path242" d="M201.02-416.19c3.48-22.813,10.149-41.08,20.064-52.879a4.066,4.066,0,0,0,3.6,2.189h9.753v50.689H201.02m60.183,0v-50.689h8.311C278.558-454.76,284.9-437,288.581-416.19H261.2m-1.981-61.084H255.1v-1.615h1.711q1.224.756,2.405,1.615" fill="#1e423c"/>
      <path id="path244" d="M290.138-406.01H261.2v-10.18h27.379q.88,4.982,1.557,10.18m-55.7,0H199.71q.554-5.226,1.309-10.18h33.415v10.18m22.381-72.878H255.1v-.993c.579.315,1.147.644,1.711.993" fill="#1e423c"/>
      <path id="path246" d="M194.64-550.037l51.595-10.979,55.427-76.444s15.033-26.68,37.235-26.68h101.78c26.911,0,44.545,29.079,44.545,29.079l61.251,84.585L702.262-524.94s11.077,1.379,17.143,17.753H683.89l10.375,48.612h29v27.8H658.3c-7.817-32.787-23.695-53.247-47.9-53.247-36,0-53.616,50.536-53.616,114.865H292.415c0-61.659-17.608-114.865-53.619-114.865s-53.616,44.8-53.616,109.129H169.226V-511.9c0-35.889,25.413-38.14,25.413-38.14" fill="#70c52d"/>
      <path id="path248" d="M575.461-549.941c-5.763,0-13.2-3.795-16.589-8.459l-58.959-81.266a10.972,10.972,0,0,1-1.041-1.735,5.091,5.091,0,0,1,.068-4.487,5.1,5.1,0,0,1,3.593-2.689,11.018,11.018,0,0,1,2.013-.176H732.51c5.739,0,13.623,3.388,17.572,7.552l78.42,82.668a5.09,5.09,0,0,1,.984,5.512,5.088,5.088,0,0,1-4.676,3.08H575.461" fill="#31716a"/>
      <path id="path250" d="M732.51-653.842H504.547a16.164,16.164,0,0,0-2.955.263,10.186,10.186,0,0,0-7.187,5.38,10.183,10.183,0,0,0-.133,8.976,15.975,15.975,0,0,0,1.517,2.541l58.964,81.271c4.295,5.921,13.392,10.561,20.709,10.561H824.81a10.18,10.18,0,0,0,9.352-6.16,10.177,10.177,0,0,0-1.967-11.024L753.774-644.7c-4.943-5.211-14.084-9.139-21.264-9.139m0,10.179c4.38,0,10.865,2.788,13.88,5.965l78.42,82.669H575.463c-4.112,0-10.056-3.032-12.471-6.36l-58.96-81.265a5.927,5.927,0,0,1-.559-.921,5.879,5.879,0,0,1,1.073-.088H732.51" fill="#31716a"/>
      <path id="path252" d="M509.683-391.292V-565.933l-38.964-58.913c-12.933-20.183-19.385-21.3-33.771-21.3H334.9c-10.975,0-17.06,15.353-17.116,15.508l-.379,1.037L286.7-568.321v67.157l54.5,109.872H509.683" fill="#31716a"/>
      <path id="path254" d="M509.683-391.292h5.089V-565.933a5.128,5.128,0,0,0-.844-2.808l-38.964-58.913-4.245,2.808L475-627.592a96.959,96.959,0,0,0-9.212-12.5,38.4,38.4,0,0,0-6.637-5.983,26.9,26.9,0,0,0-10.7-4.411,63.5,63.5,0,0,0-11.5-.748H334.9a16.912,16.912,0,0,0-5.545.937,21.238,21.238,0,0,0-7.456,4.624,36.111,36.111,0,0,0-6.576,8.537c-.721,1.267-1.268,2.372-1.647,3.188-.189.408-.336.744-.441.993-.053.124-.1.227-.129.307l-.043.108-.02.052-.043.112v0l-.279.763L282.148-570.6a5,5,0,0,0-.54,2.28v67.157a5.145,5.145,0,0,0,.531,2.263l54.5,109.87A5.091,5.091,0,0,0,341.2-386.2H509.683a5.122,5.122,0,0,0,3.6-1.491,5.122,5.122,0,0,0,1.491-3.6h-5.089v-5.091H344.356L291.787-502.356v-64.761l30.172-60.2a4.912,4.912,0,0,0,.232-.537l.377-1.037v0l-4.439-1.613,4.407,1.7.032-.085-4.439-1.613,4.407,1.7-2.064-.8,2.056.817.008-.021-2.064-.8,2.056.817a32.535,32.535,0,0,1,3.96-6.825,17.924,17.924,0,0,1,4.088-3.992,9.19,9.19,0,0,1,2.153-1.083,6.7,6.7,0,0,1,2.172-.364H436.948a61.468,61.468,0,0,1,8.78.435,18.565,18.565,0,0,1,4.732,1.291,21.179,21.179,0,0,1,6.889,5.1,80.349,80.349,0,0,1,9.084,12.129l.04.061,38.12,57.636v173.11h5.089v0" fill="#31716a"/>
      <path id="path256" d="M334.062-629.993c-3.132,0-8.253,2.276-10.537,4.685l-31.8,67.153H514.412v-9.92l-41.155-61.919h-139.2" fill="#fff"/>
      <path id="path258" d="M392.376-543.9H402.5l7.975-106.749H395.24L392.376-543.9" fill="#37887f"/>
      <path id="path260" d="M389.27-540.908h34.484l8.4-108.458H397.244L389.27-540.908" fill="#31716a"/>
      <path id="path262" d="M389.628-540.908h23.453l8.012-110.546H397.64l-8.012,110.546" fill="#9fd62b"/>
      <path id="path264" d="M413.082-385.51H389.628V-542.227h23.453V-385.51" fill="#9fd62b"/>
      <path id="path266" d="M380.322-540.908h23.453l12.269-112.728H392.591L380.322-540.908" fill="#5cb733"/>
      <path id="path268" d="M380.322-383.9h23.453V-542.227H380.322Z" fill="#5cb733"/>
      <path id="path270" d="M737.949-628.646c3.131,0,8.252,2.276,10.536,4.685l63.7,67.152v13.161H574.911c-6.793,0-15.479-4.637-19.773-10.557l-10.105-13.928L563.7-628.646h174.25" fill="#fff"/>
      <path id="path272" d="M658.414-543.68h20.795l-8.2-101.926H650.217l8.2,101.926" fill="#31716a"/>
      <path id="path274" d="M526.233-594.681l-25.656-35.312h38.036Z" fill="#fff"/>
      <path id="path276" d="M379.983-385.747l.359-11.153H346.3L292.425-499.544,281.8-563.691v64.147l56.192,113.8h41.989" fill="#9fd62b"/>
      <path id="path278" d="M544.959-511.157h15.915a3.057,3.057,0,0,1,2.863,3.22v12.5a3.058,3.058,0,0,1-2.863,3.221H544.959a3.059,3.059,0,0,1-2.863-3.221v-12.5a3.058,3.058,0,0,1,2.863-3.22" fill="#37887f"/>
      <path id="path280" d="M544.959-511.157h15.915a3.057,3.057,0,0,1,2.863,3.22v12.5a3.058,3.058,0,0,1-2.863,3.221H544.959a3.059,3.059,0,0,1-2.863-3.221v-12.5A3.058,3.058,0,0,1,544.959-511.157Z" fill="none" stroke="#37887f" stroke-linejoin="round" stroke-miterlimit="10" stroke-width="10.179"/>
      <path id="path282" d="M1001.78-458.574h23.529v27.9c-11.149.367-16.116,0-39.5,0v39.68H943.582v-67.582h58.2" fill="#9fd62b"/>
      <path id="path284" d="M907.114-609.76h18.237v-39.789l-31.793.783,13.556,39.007" fill="#8caea8"/>
      <path id="path286" d="M925.075-609.76h18.236v-39.789H911.259l13.816,39.789" fill="#bbe6df"/>
      <path id="path288" d="M893.575-656.733a2.078,2.078,0,0,1,2.072-2.072h45.592a2.078,2.078,0,0,1,2.072,2.072v5.941a2.058,2.058,0,0,1-2.072,2.055l-45.592-.38a2.1,2.1,0,0,1-2.072-2.089v-5.527" fill="#bbe6df"/>
      <path id="path290" d="M893.575-648.72v-5.527a2.078,2.078,0,0,1,2.072-2.072h13.9a2.078,2.078,0,0,1,2.072,2.072v9.671l-18.044-4.144" fill="#8caea8"/>
      <path id="path292" d="M943.311-641.017v31.257H925.075L914.22-641.017h29.091" fill="#a3cdc5"/>
      <path id="path294" d="M930.187-640.016a2.078,2.078,0,0,0,2.072,2.072h6.079a2.078,2.078,0,0,0,2.072-2.072v-12.3a2.079,2.079,0,0,0-2.072-2.073h-6.079a2.079,2.079,0,0,0-2.072,2.073v12.3" fill="#fff"/>
      <path id="path296" d="M910.982-658.81h21.761v-8.29H910.982Z" fill="#fbc941"/>
      <path id="path298" d="M922.98-658.81h9.763v-8.29H922.98Z" fill="#fbd652"/>
      <path id="path300" d="M910.983-658.81h21.76v-1.657h-21.76v1.657" fill="#4a8594"/>
      <path id="path302" d="M690.5-592.836h-7.461v-11.328a3.73,3.73,0,0,1,3.731-3.731h6.217v7.46H690.5v7.6" fill="#3e3d3f"/>
      <path id="path304" d="M686.145-597.395H679.1v-9.533a5.6,5.6,0,0,1,5.595-5.595h18.375v7.045H686.145v8.083" fill="#4c4f54"/>
      <path id="path306" d="M716.47-612.316H819.26v-47.249H716.47Z" fill="#5f637e"/>
      <path id="path308" d="M792.319-622.677a10.392,10.392,0,0,0,10.361,10.361h95.272a10.392,10.392,0,0,0,10.363-10.361V-649.2a10.392,10.392,0,0,0-10.363-10.361H802.681A10.392,10.392,0,0,0,792.319-649.2v26.527" fill="#acb1cb"/>
      <path id="path310" d="M824.682-631.1a4.012,4.012,0,0,0,4,4h53.737a4.012,4.012,0,0,0,4-4v-24.329a4.013,4.013,0,0,0-4-4H828.682a4.013,4.013,0,0,0-4,4V-631.1" fill="#5f637e"/>
      <path id="path312" d="M908.315-642.714v-2.62l.975.224v.231a2.9,2.9,0,0,1-.975,2.165" fill="#627c7c"/>
      <path id="path314" d="M909.29-645.11l-.975-.224v-2.212h.975v2.436" fill="#627c7c"/>
      <path id="path316" d="M792.319-647.782a2.911,2.911,0,0,0-2.895-2.7H760.377c-1.807-2.936-3.964-5.419-6.316-6.235a5.178,5.178,0,0,0-1.711-.3,4.987,4.987,0,0,0-3.159,1.175,15.55,15.55,0,0,0-3.944,4.888c-.1.168-.185.325-.271.472H719.372a2.909,2.909,0,0,1-2.9-2.9v-4.144h76.273a4.337,4.337,0,0,1,2.623,1,10.331,10.331,0,0,0-3.047,7.321v1.421m-36.219-2.7h-7a10.475,10.475,0,0,1,2.317-2.588,1.479,1.479,0,0,1,.945-.387,1.614,1.614,0,0,1,.529.1,7.951,7.951,0,0,1,3.207,2.876" fill="#44475b"/>
      <path id="path318" d="M906.388-641.978H886.419v-5.568h21.9v4.832a2.89,2.89,0,0,1-1.927.736m-81.706,0H795.227a2.909,2.909,0,0,1-2.9-2.9v-2.7c0-.067,0-.135-.007-.2V-649.2a10.332,10.332,0,0,1,3.047-7.321,4.094,4.094,0,0,1,1.292,1.715l1.693,4.545a4.5,4.5,0,0,0,3.915,2.719h22.416v5.568" fill="#777e95"/>
      <path id="path320" d="M824.682-641.978h61.737v-5.568H824.682Z" fill="#44475b"/>
      <path id="path322" d="M716.01-657.529c-1.6,0-2.265-1.141-1.488-2.535l3.391-6.085a5.465,5.465,0,0,1,4.315-2.535H910.443a4.5,4.5,0,0,1,3.915,2.719l5.849,15.7a1.885,1.885,0,0,1-1.889,2.719H802.266a4.5,4.5,0,0,1-3.915-2.719l-1.693-4.545a4.5,4.5,0,0,0-3.915-2.719H716.01" fill="#4c4f54"/>
      <path id="path324" d="M811.278-647.546h-9.012a4.5,4.5,0,0,1-3.915-2.719l-1.693-4.545a4.5,4.5,0,0,0-3.915-2.719H716.01c-1.147,0-1.816-.589-1.812-1.439a2.3,2.3,0,0,1,.324-1.1l3.391-6.085a5.465,5.465,0,0,1,4.315-2.535H803.4a4.5,4.5,0,0,1,3.915,2.719l5.849,15.7a1.885,1.885,0,0,1-1.888,2.719" fill="#313134"/>
      <path id="path326" d="M763.939-635.82a1.779,1.779,0,0,1-1.732-1.381c-1.132-4.933-5.735-14.916-9.313-16.159a1.388,1.388,0,0,0-1.475.288,11.986,11.986,0,0,0-3.08,3.872c-1.607,2.831-3.177,4.743-8.805,3.577a1.78,1.78,0,0,1-1.38-2.1,1.779,1.779,0,0,1,2.1-1.38c3.523.731,3.835.184,4.991-1.851a15.549,15.549,0,0,1,3.944-4.888,4.89,4.89,0,0,1,4.869-.875c6.045,2.1,10.805,15.2,11.613,18.723a1.779,1.779,0,0,1-1.336,2.131,1.778,1.778,0,0,1-.4.045" fill="#38343f"/>
      <path id="path328" d="M749.843-635.82a1.779,1.779,0,0,1-1.732-1.381c-1.132-4.933-5.735-14.916-9.313-16.159a1.386,1.386,0,0,0-1.473.288,11.975,11.975,0,0,0-3.081,3.872c-1.607,2.829-3.177,4.743-8.8,3.577a1.78,1.78,0,0,1-1.381-2.1,1.779,1.779,0,0,1,2.1-1.38c3.525.731,3.835.184,4.991-1.851a15.557,15.557,0,0,1,3.945-4.888,4.89,4.89,0,0,1,4.868-.876c6.047,2.1,10.805,15.2,11.613,18.724a1.779,1.779,0,0,1-1.335,2.131,1.793,1.793,0,0,1-.4.045" fill="#38343f"/>
      <path id="path330" d="M783.2-647.408,785.687-635l-26.527,2.515-2.211-11.329,26.251-3.592" fill="#4c4f54"/>
      <path id="path332" d="M758.01-638.386l-1.06-5.429,2.74-.375h0l-2.74.375,1.06,5.429m5.325-6.3h0l2.788-.383h0l-2.789.383" fill="#3c3d4f"/>
      <path id="path334" d="M759.69-644.19h0l3.645-.5h0l-3.645.5" fill="#252228"/>
      <path id="path336" d="M783.5-645.918l-.043-.208.043.208h0" fill="#3c3d4f"/>
      <path id="path338" d="M770.057-637.844H758.115l-.105-.543-1.06-5.429,2.74-.375,3.645-.5,2.789-.383,17.313-1.152.019.1.043.208c-1.585,2.476-6.671,6.565-13.287,7.491l-.156.584" fill="#313134"/>
      <path id="path340" d="M848.159-616.023h40v-17.111h-40Z" fill="#4c4f54"/>
      <path id="path342" d="M918.594-548.9v25.283a10.392,10.392,0,0,1-10.361,10.361H889.167c-5.7,0-14.055-2.847-18.567-6.328l-16.195-12.488a9.82,9.82,0,0,1-1.5-14.228l6.76-7.964c3.688-4.344,11.359-7.608,17.047-7.253l27.948,1.747c5.688.356,11.888,5.045,13.777,10.423l.156.448" fill="#acb1cb"/>
      <path id="path344" d="M739.769-527.313a20.585,20.585,0,0,0-20.585,20.585,20.586,20.586,0,0,0,20.585,20.585H845.323v-38.684l-105.554-2.487" fill="#858fb2"/>
      <path id="path346" d="M774.911-578.121h26.94v-31.5h-26.94Z" fill="#bec6db"/>
      <path id="path348" d="M864.749-552.737a42.783,42.783,0,0,0-42.781-42.783,42.783,42.783,0,0,0-42.783,42.783,42.782,42.782,0,0,0,42.783,42.781,42.781,42.781,0,0,0,42.781-42.781" fill="#38343f"/>
      <path id="path350" d="M835.371-546.616a2.079,2.079,0,0,0-2.072-2.073h-97a4.073,4.073,0,0,1-3.14-1.776l-4.635-7.713a8.823,8.823,0,0,1-1.068-3.848v-1.657a3.761,3.761,0,0,1,1.839-3.031l9.587-4.993a1.156,1.156,0,0,1,1.837,1.116v5.277a2.078,2.078,0,0,1-2.072,2.072H691.4a2.078,2.078,0,0,0-2.072,2.072v42.111a2.815,2.815,0,0,0,2.007,2.585l8.419,2.152a2.817,2.817,0,0,1,2.008,2.585v.139c0,1.139-.311,2.072-.689,2.072s-.628.931-.551,2.068l.167,2.5a2.253,2.253,0,0,0,2.211,2.068H833.3a2.079,2.079,0,0,0,2.072-2.073v-41.648" fill="#858fb2"/>
      <path id="path352" d="M765.322-521.751a1.984,1.984,0,0,1-1.865-2.073v-11.459a2.269,2.269,0,0,1,.119-.725,27.6,27.6,0,0,0,3.612,1.157v11.027a1.983,1.983,0,0,1-1.865,2.073" fill="#acb3d0"/>
      <path id="path354" d="M751.79-521.751a1.983,1.983,0,0,1-1.865-2.073v-11.459a1.983,1.983,0,0,1,1.865-2.073,1.983,1.983,0,0,1,1.864,2.073v11.459a1.983,1.983,0,0,1-1.864,2.073" fill="#acb3d0"/>
      <path id="path356" d="M738.256-521.751a1.983,1.983,0,0,1-1.864-2.073v-11.459a1.983,1.983,0,0,1,1.864-2.073,1.983,1.983,0,0,1,1.865,2.073v11.459a1.983,1.983,0,0,1-1.865,2.073" fill="#acb3d0"/>
      <path id="path358" d="M724.722-521.751a1.984,1.984,0,0,1-1.865-2.073v-11.459a1.984,1.984,0,0,1,1.865-2.073,1.983,1.983,0,0,1,1.865,2.073v11.459a1.983,1.983,0,0,1-1.865,2.073" fill="#acb3d0"/>
      <path id="path360" d="M711.19-521.751a1.983,1.983,0,0,1-1.865-2.073v-11.459a1.983,1.983,0,0,1,1.865-2.073,1.983,1.983,0,0,1,1.864,2.073v11.459a1.983,1.983,0,0,1-1.864,2.073" fill="#acb3d0"/>
      <path id="path362" d="M697.656-521.751a1.983,1.983,0,0,1-1.864-2.073v-11.459a1.983,1.983,0,0,1,1.864-2.073,1.983,1.983,0,0,1,1.865,2.073v11.459a1.983,1.983,0,0,1-1.865,2.073" fill="#acb3d0"/>
      <path id="path364" d="M689.322-541.233h.005v-2.415h-.005Z" fill="#74b62d"/>
      <path id="path366" d="M689.322-543.648h.005v-3.845h-.005Z" fill="#c5c4bf"/>
      <path id="path368" d="M755.2-541.233H689.328v-6.26H750.05a27.936,27.936,0,0,0,5.155,6.26" fill="#626b87"/>
      <path id="path370" d="M814.977-517.955v8.289H700.412a2.072,2.072,0,0,0,1.349-1.933v-.139a2.819,2.819,0,0,0-2.008-2.585l-8.419-2.152a2.79,2.79,0,0,1-1.728-1.48h125.37" fill="#5f637e"/>
      <path id="path372" d="M682.29-549.56a2.267,2.267,0,0,0,2.221,2.067H790.4a2.078,2.078,0,0,0,2.072-2.072v-28.183a2.078,2.078,0,0,0-2.072-2.072H702.956a3.51,3.51,0,0,0-2.931,1.885l-2.429,5.34a3.513,3.513,0,0,1-2.931,1.887h-4.351a3.415,3.415,0,0,0-2.889,1.9l-4.767,11.127a10.153,10.153,0,0,0-.668,3.972l.3,4.145" fill="#939bbc"/>
      <path id="path374" d="M790.4-579.82a2.078,2.078,0,0,1,2.072,2.072v19.893a2.078,2.078,0,0,1-2.072,2.072H683.918a1.268,1.268,0,0,1-1.256-1.9l4.763-11.117a3.415,3.415,0,0,1,2.889-1.9h4.351a3.513,3.513,0,0,0,2.931-1.887l2.429-5.34a3.51,3.51,0,0,1,2.931-1.885H790.4" fill="#bec6db"/>
      <path id="path376" d="M766.069-579.82v7.708H697.377l3.505-7.708h65.186" fill="#7c83a3"/>
      <path id="path378" d="M757.145-610.219a3.357,3.357,0,0,0,3.419,4.08h73.772a4.156,4.156,0,0,0,4.145-4.144V-633.7a4.157,4.157,0,0,0-4.145-4.145H766.208a5.147,5.147,0,0,0-4.872,4.081l-4.191,23.544" fill="#d3dbeb"/>
      <path id="path380" d="M711.916-606.513c0,10.569,2.068,18.029,10.361,25.491l.208.207c-3.316,4.145-15.287,7.308-23.211.829-6.844-5.6-10.361-17.823-10.361-26.527h23" fill="#939bbc"/>
      <path id="path382" d="M728.7-606.513c0,10.569,2.068,18.029,10.361,25.491l.207.207c-3.315,4.145-15.285,7.308-23.211.829-6.843-5.6-10.361-17.823-10.361-26.527h23" fill="#939bbc"/>
      <path id="path384" d="M745.487-606.513c0,10.569,2.068,18.029,10.361,25.491l.208.207c-3.316,4.145-15.287,7.308-23.211.829-6.843-5.6-10.361-17.823-10.361-26.527h23" fill="#939bbc"/>
      <path id="path386" d="M762.274-606.513c0,10.569,2.068,18.029,10.361,25.491l.208.207c-3.316,4.145-15.287,7.308-23.211.829-6.844-5.6-10.363-17.823-10.363-26.527h23" fill="#939bbc"/>
      <path id="path388" d="M756.229-588.8a44.934,44.934,0,0,1-3.9-15.739c1.284-.34,2.539-.633,3.628-.871a45.142,45.142,0,0,0,2.807,13.9,29.733,29.733,0,0,0-2.533,2.713m-.289-17.3h-3.667v-.04h3.667v.04" fill="#b9c0da"/>
      <path id="path390" d="M750.348-577.015c-.168-.048-.335-.1-.5-.153.2-.059.395-.121.587-.187l-.084.34" fill="#a9b0ca"/>
      <path id="path392" d="M749.845-577.168q-.562-.18-1.116-.4c.6-.123,1.229-.269,1.879-.445-.061.22-.12.44-.176.661-.192.065-.388.128-.587.187m-7.185-4.708c-5.1-5.647-7.913-15.123-8.333-22.693,1.289-.339,2.545-.631,3.628-.865.231,7.233,2.743,16.488,7.433,22.444a7.013,7.013,0,0,1-2.728,1.115M737.94-606.1h-3.667v-.04h3.667v.04" fill="#b9c0da"/>
      <path id="path394" d="M737.588-576.3a18.981,18.981,0,0,1-5.155-.693,19.762,19.762,0,0,0,1.9-.612,17.931,17.931,0,0,0,5.149,1.219c-.624.057-1.259.087-1.9.087" fill="#a9b0ca"/>
      <path id="path396" d="M732.433-576.989a15.98,15.98,0,0,1-5.8-3c-6.26-5.119-9.739-15.785-10.285-24.229,1.235-.351,2.48-.663,3.617-.925.344,8.575,3.844,19.847,10.335,25.155a15.617,15.617,0,0,0,4.036,2.385,19.735,19.735,0,0,1-1.9.612M719.939-606.1h-3.667v-.04h3.667v.04" fill="#b9c0da"/>
      <path id="path398" d="M721.365-576.3a18.863,18.863,0,0,1-5.428-.773,18.979,18.979,0,0,0,1.9-.645,17.847,17.847,0,0,0,5.421,1.332q-.936.086-1.9.087" fill="#a9b0ca"/>
      <path id="path400" d="M715.937-577.069a15.942,15.942,0,0,1-5.527-2.917c-6.248-5.109-9.725-15.747-10.283-24.184,1.229-.353,2.475-.667,3.617-.933.352,8.569,3.851,19.817,10.332,25.117a15.572,15.572,0,0,0,3.764,2.272,18.953,18.953,0,0,1-1.9.645M703.718-606.1h-3.667c0-.013,0-.027,0-.04h3.667c0,.013,0,.027,0,.04" fill="#b9c0da"/>
      <path id="path402" d="M779.059-606.513c0,10.569,2.068,18.029,10.363,25.491l.207.207c-3.316,4.145-15.285,7.308-23.211.829-6.843-5.6-10.361-17.823-10.361-26.527h23" fill="#939bbc"/>
      <path id="path404" d="M769.651-598.044a43.914,43.914,0,0,1-.864-6.233c1.244-.348,2.491-.656,3.62-.915a41.749,41.749,0,0,0,.5,4.952l-2.4,1.923q-.432.13-.859.273m2.733-8.055h-3.667c0-.032,0-.065,0-.1a3.967,3.967,0,0,0,.487-.115l-.095.172h3.275c0,.013,0,.027,0,.04" fill="#b9c0da"/>
      <path id="path406" d="M819.466-606.513c0,8.7,4.973,16.787,10.361,25.491l.208.207c-3.316,4.145-17.823,9.533-23.211.829s-10.363-17.823-10.363-26.527h23" fill="#aeadb0"/>
      <path id="path408" d="M842.049-520h48.637l7.461-20.724h20.047v-23.449H836.4L842.049-520" fill="#5f637e"/>
      <path id="path410" d="M843.418-548.077a2.418,2.418,0,0,0-2.331-2.056H817.8a6.648,6.648,0,0,1-3.661-1.329l-3.592-3.005a4.675,4.675,0,0,1-1.473-3.4l.324-5.821a4.048,4.048,0,0,1,1.953-3.027l9.587-4.993a16.032,16.032,0,0,0,3.3-2.427l6.412-6.455c.8-.808.528-1.471-.612-1.471H782.786a2.079,2.079,0,0,0-2.072,2.073v60.927a2.815,2.815,0,0,0,2.007,2.585l8.419,2.152a2.816,2.816,0,0,1,2.008,2.585v.139a2.078,2.078,0,0,1-2.072,2.072h-4.56a2.078,2.078,0,0,0-2.072,2.072v2.487a2.08,2.08,0,0,0,2.072,2.073h60.513a1.786,1.786,0,0,0,1.813-2.056l-5.424-43.127" fill="#acb1cb"/>
      <path id="path412" d="M840.3-544.939l82.588.347v-46.625H840.159l.144,46.279" fill="#d3dbeb"/>
      <path id="path414" d="M895.328-544.592h-9.173l-.169-.155,9.343.039v.116" fill="#4c506d"/>
      <path id="path416" d="M895.328-544.708l-9.343-.039c-.288-.261-.579-.516-.875-.768a27.76,27.76,0,0,0,5.1-6.7h5.12v7.509" fill="#a9b2cd"/>
      <path id="path418" d="M833.8-564.715H815.251a29.67,29.67,0,0,0,.468-4.275l5.217-2.719a12.323,12.323,0,0,0,1.228-.752q1.718.306,3.588.487h.807q.672.028,1.352.028h6.68a27.684,27.684,0,0,0-.8,6.625c0,.2,0,.4.007.605" fill="#222027"/>
      <path id="path420" d="M815.719-568.989c.012-.363.019-.725.019-1.092a29.77,29.77,0,0,0-.3-4.235,36.073,36.073,0,0,0,6.728,1.856,12.345,12.345,0,0,1-1.228.752l-5.217,2.719" fill="#5c6382"/>
      <path id="path422" d="M837.1-563.381h85.792v-46.626H837.1Z" fill="#313032"/>
      <path id="path424" d="M924.535-552.217H882.4V-568.8h42.137a8.3,8.3,0,0,0,8.289-8.289v-46.421H949.4v46.421a24.9,24.9,0,0,1-24.868,24.868" fill="#46464a"/>
      <path id="path426" d="M889.011-565.317A27.612,27.612,0,0,0,861.4-592.929a27.61,27.61,0,0,0-27.609,27.609A27.611,27.611,0,0,0,861.4-537.708a27.61,27.61,0,0,0,27.609-27.609" fill="#312d35"/>
      <path id="path428" d="M913.566-567.548a10.2,10.2,0,0,0,10.2-10.2,10.2,10.2,0,0,0-10.2-10.2H873.831v20.116l39.734.281" fill="#939bbc"/>
      <path id="path430" d="M912.723-550.145h-2.9v-5.983a.631.631,0,0,0-.621-.621H894.279a.631.631,0,0,0-.623.621v4.015h-2.9v-4.015a3.526,3.526,0,0,1,3.523-3.523H909.2a3.526,3.526,0,0,1,3.523,3.523v5.983" fill="#d3dbeb"/>
      <path id="path432" d="M829.206-526.728a2.079,2.079,0,0,1-2.072,2.073H812.421a1.18,1.18,0,0,1-1.145-1.855l5.607-11.213a3.682,3.682,0,0,1,3-1.853h7.253a2.078,2.078,0,0,1,2.072,2.072v10.776" fill="#5d6682"/>
      <path id="path434" d="M919.072-586.332a10.113,10.113,0,0,0-1.648-.857A28.614,28.614,0,0,0,920.6-590.2a27.026,27.026,0,0,1-1.528,3.869" fill="#1f1e20"/>
      <path id="path436" d="M895.12-573.668a28.167,28.167,0,0,0-3.784-7.187c.309.009.619.015.931.015a28.84,28.84,0,0,0,3.629-.229,28.781,28.781,0,0,0,3.627.229h0a28.289,28.289,0,0,0,17.9-6.349,10.11,10.11,0,0,1,1.648.857q-.33.678-.7,1.333L895.12-573.668" fill="#505679"/>
      <path id="path438" d="M865.986-537.775a27.57,27.57,0,0,0,27.54-27.539,27.571,27.571,0,0,0-27.54-27.54,27.57,27.57,0,0,0-27.539,27.54,27.569,27.569,0,0,0,27.539,27.539" fill="#38343f"/>
      <path id="path440" d="M864.159-539.688H851.714l-8.221-26.779H858.27l9.667-23.111,6.445,3.333-9.335,23.333-.888,23.223" fill="#5f637e"/>
      <path id="path442" d="M870.159-539.688H849.715L840.159-563.8l22.777-.111,11-25.667,6.445,3.333-9.333,23.333-.889,23.223" fill="#939bbc"/>
      <path id="path444" d="M865.776-592.929a27.61,27.61,0,0,0-27.609,27.611,27.611,27.611,0,0,0,27.609,27.611,27.608,27.608,0,0,0,27.611-27.609,27.612,27.612,0,0,0-27.611-27.612m0,7.084A20.551,20.551,0,0,1,886.3-565.317a20.55,20.55,0,0,1-20.527,20.527,20.551,20.551,0,0,1-20.527-20.528,20.549,20.549,0,0,1,20.527-20.527" fill="#54585f"/>
      <path id="path446" d="M944.015-577.155a2.7,2.7,0,0,1-2.693-2.695v-3.66a2.7,2.7,0,0,1,2.693-2.695,2.7,2.7,0,0,1,2.695,2.695v3.66a2.7,2.7,0,0,1-2.695,2.695" fill="#666970"/>
      <path id="path448" d="M944.015-588.795a2.7,2.7,0,0,1-2.693-2.695v-29.569h5.388v29.569a2.7,2.7,0,0,1-2.695,2.695" fill="#666970"/>
      <path id="path450" d="M892.592-572.436a27.436,27.436,0,0,0-4.039-8.645c.913.12,1.844.2,2.783.227a28.166,28.166,0,0,1,3.784,7.187l-2.528,1.232" fill="#3e3a4d"/>
      <path id="path452" d="M885.1-572.26a47.9,47.9,0,0,1-9.032-3.191l2.4-5.995a20.606,20.606,0,0,1,6.633,9.185m7.38-.119a27.474,27.474,0,0,0-4.039-8.717c.04.005.077.011.117.015a27.437,27.437,0,0,1,4.039,8.645l-.117.057" fill="#2c2427"/>
      <path id="path454" d="M869.592-579.44a26.18,26.18,0,0,1-3.616-3.463,31.868,31.868,0,0,0,2.171-2.807,20.35,20.35,0,0,1,3.787.807l-2.341,5.463" fill="#4a4251"/>
      <path id="path456" d="M876.063-575.451a33.881,33.881,0,0,1-6.471-3.989l2.341-5.463a20.483,20.483,0,0,1,6.528,3.457l-2.4,5.995" fill="#6f677a"/>
      <path id="path458" d="M890.122-571.232c-1.7-.275-3.38-.616-5.027-1.028a20.606,20.606,0,0,0-6.633-9.185,20.482,20.482,0,0,0-6.528-3.457,20.353,20.353,0,0,0-3.787-.807,31.557,31.557,0,0,0,2.735-4.839,28.362,28.362,0,0,0,17.555,9.452,27.477,27.477,0,0,1,4.039,8.717l-2.353,1.147" fill="#423b3c"/>
      <path id="path460" d="M816.157-502.895h-.433c-.065-.173-.129-.347-.192-.521l.625.521" fill="#646978"/>
      <path id="path462" d="M838.2-550.133h-2.325q.972-.416,1.973-.777c.1.169.209.339.316.505l.036.272" fill="#242124"/>
      <path id="path464" d="M838.339-550.133H838.2l-.036-.272.179.272" fill="#3a3b48"/>
      <path id="path466" d="M820.673-506.075,813.554-512a37.32,37.32,0,0,1-.215-4,37.169,37.169,0,0,1,1.016-8.655H819.7a37.284,37.284,0,0,0-.74,7.412,37.1,37.1,0,0,0,1.709,11.168m5.76-33.5h-4.641a37.206,37.206,0,0,1,14.08-10.557h2.468c.045.069.092.14.139.209a37.278,37.278,0,0,0-12.045,10.348" fill="#646978"/>
      <path id="path468" d="M838.478-549.924c-.047-.069-.093-.14-.139-.209l-.179-.272c-.107-.167-.212-.336-.316-.505a36.8,36.8,0,0,1,3.721-1.125q.14.254.285.507a36.682,36.682,0,0,0-3.373,1.605" fill="#201d20"/>
      <path id="path470" d="M819.7-524.655h-5.348a36.968,36.968,0,0,1,7.436-14.921h4.641a36.95,36.95,0,0,0-6.729,14.921" fill="#383d4b"/>
      <path id="path472" d="M841.851-551.529c-.1-.168-.192-.337-.285-.507a36.714,36.714,0,0,1,3.656-.705q-1.722.526-3.371,1.212" fill="#343536"/>
      <path id="path474" d="M920.674-609.247a28.406,28.406,0,0,0-28.407-28.405,28.406,28.406,0,0,0-28.407,28.407,28.406,28.406,0,0,0,28.407,28.405,28.407,28.407,0,0,0,28.407-28.407" fill="#939bbc"/>
      <path id="path476" d="M927.587-623.13a2.078,2.078,0,0,0,2.072,2.072h22.588a2.078,2.078,0,0,0,2.072-2.072v-10.776a2.078,2.078,0,0,0-2.072-2.072H929.659a2.078,2.078,0,0,0-2.072,2.072v10.776" fill="#4f525a"/>
      <path id="path478" d="M842.373-635.341H831.6c-17.511,0-30.42,11.692-30.42,29.2H769.109L786.515-637.9h52.845c3.939,0,3.012,2.561,3.012,2.561" fill="#d3dbeb"/>
      <path id="path480" d="M927.587-627.928v-5.979a2.078,2.078,0,0,1,2.072-2.072h22.588a2.078,2.078,0,0,1,2.072,2.072v5.979H927.587" fill="#f04334"/>
      <path id="path482" d="M927.484-625.717h26.893v-2.348H927.484v2.348" fill="#313032"/>
      <path id="path484" d="M813.457-624.128l-6.839-3.109-36.336,29.1,28.668,7.992,14.507-33.987" fill="#5f637e"/>
      <path id="path486" d="M932.878-614.943h16.468v-6.077H932.878v6.077" fill="#313032"/>
      <path id="path488" d="M899.523-582.84a26.237,26.237,0,0,1-18.672-7.733,26.232,26.232,0,0,1-7.735-18.672,26.233,26.233,0,0,1,7.735-18.672,26.23,26.23,0,0,1,18.672-7.735,26.237,26.237,0,0,1,18.672,7.733,26.232,26.232,0,0,1,7.735,18.672,26.437,26.437,0,0,1-26.407,26.407" fill="#bec6db"/>
      <path id="path490" d="M899.524-637.652h0a28.406,28.406,0,0,0-28.407,28.407,28.406,28.406,0,0,0,28.407,28.405h0a28.406,28.406,0,0,0,28.407-28.407,28.406,28.406,0,0,0-28.405-28.405m0,4a24.433,24.433,0,0,1,24.405,24.405,24.247,24.247,0,0,1-7.148,17.257,24.246,24.246,0,0,1-17.259,7.149,24.433,24.433,0,0,1-24.407-24.405,24.247,24.247,0,0,1,7.148-17.257,24.248,24.248,0,0,1,17.26-7.149" fill="#d3dbeb"/>
      <path id="path492" d="M898.783-588.493a18.68,18.68,0,0,1-18.68-18.68,18.68,18.68,0,0,1,18.68-18.681,18.681,18.681,0,0,1,18.68,18.681,18.681,18.681,0,0,1-18.68,18.68" fill="#9ea5b6"/>
      <path id="path494" d="M918.728-609.247a16.216,16.216,0,0,0-16.216-16.215A16.215,16.215,0,0,0,886.3-609.247a16.214,16.214,0,0,0,16.215,16.215,16.215,16.215,0,0,0,16.216-16.215" fill="#3e3d3f"/>
      <path id="path496" d="M918.152-609.247a17.193,17.193,0,0,0-17.2-17.193,17.2,17.2,0,0,0-17.195,17.195,17.193,17.193,0,0,0,17.2,17.193,17.194,17.194,0,0,0,17.195-17.195" fill="#38343f"/>
      <path id="path498" d="M913.572-609.247a11.058,11.058,0,0,0-11.06-11.059,11.058,11.058,0,0,0-11.059,11.059,11.059,11.059,0,0,0,11.059,11.06,11.06,11.06,0,0,0,11.06-11.06" fill="#d1a485"/>
      <path id="path500" d="M827.911-571.945A31.707,31.707,0,0,1,796.2-603.652a31.707,31.707,0,0,1,31.707-31.705h14.335l.224,63.412H827.911" fill="#939bbc"/>
      <path id="path502" d="M843.922-571.973h-.568c.191-.008.379-.019.568-.029v.029" fill="#40424a"/>
      <path id="path504" d="M826.559-571.973h-.807q-1.872-.18-3.588-.487l.005,0a31.905,31.905,0,0,0,4.389.491" fill="#1b1a1f"/>
      <path id="path506" d="M822.165-572.46a36.072,36.072,0,0,1-6.728-1.856c-.009-.064-.019-.125-.028-.189a31.466,31.466,0,0,0,6.761,2.041l-.005,0" fill="#444966"/>
      <path id="path508" d="M796.317-600.977c-.061-.428-.116-.847-.164-1.253l.083-.012q.028.636.081,1.265" fill="#474962"/>
      <path id="path510" d="M840.651-571.973H826.559a31.9,31.9,0,0,1-4.389-.491,31.46,31.46,0,0,1-6.761-2.041,29.519,29.519,0,0,0-18.485-23.067c-.255-1.183-.453-2.324-.607-3.405q-.054-.63-.081-1.265l14.068-2.023c0,.2-.007.409-.007.613a31.707,31.707,0,0,0,30.355,31.679" fill="#6b7497"/>
      <path id="path512" d="M873.709-603.652A31.707,31.707,0,0,0,842-635.357,31.707,31.707,0,0,0,810.3-603.652,31.707,31.707,0,0,0,842-571.945a31.707,31.707,0,0,0,31.705-31.707" fill="#d3dbeb"/>
      <path id="path514" d="M842-603.646l19.312-23.015-9.035-5.22L842-603.648h0" fill="#3e3d3f"/>
      <path id="path516" d="M841.993-603.643l29.588,5.217,0-10.435L842-603.643h0" fill="#3e3d3f"/>
      <path id="path518" d="M841.986-603.648l10.276,28.233,9.039-5.216-19.313-23.015v0" fill="#3e3d3f"/>
      <path id="path520" d="M841.987-603.656l-19.312,23.015,9.035,5.22,10.276-28.232v0" fill="#3e3d3f"/>
      <path id="path522" d="M842-603.66l-29.588-5.216,0,10.433,29.589-5.217h0" fill="#3e3d3f"/>
      <path id="path524" d="M842-603.655l-10.276-28.232-9.039,5.215L842-603.656h0" fill="#3e3d3f"/>
      <path id="path526" d="M842-635.33a31.68,31.68,0,0,0-31.68,31.68A31.68,31.68,0,0,0,842-571.972a31.679,31.679,0,0,0,31.679-31.679A31.679,31.679,0,0,0,842-635.33M842-630a26.376,26.376,0,0,1,26.345,26.347A26.375,26.375,0,0,1,842-577.305a26.376,26.376,0,0,1-26.347-26.345A26.376,26.376,0,0,1,842-630" fill="#dce4f2"/>
      <path id="path528" d="M893.18-517.243a37.108,37.108,0,0,0-37.108-37.109,37.109,37.109,0,0,0-37.109,37.109,37.109,37.109,0,0,0,37.109,37.109,37.108,37.108,0,0,0,37.108-37.109" fill="#38343f"/>
      <path id="path530" d="M791.2-526.688a2.079,2.079,0,0,0,2.072,2.073h5.785a3.717,3.717,0,0,0,3.013-1.847l7.549-14.8a2.878,2.878,0,0,0-.588-3.243l-4.013-3.661a2.281,2.281,0,0,0-3.041.023l-9.267,8.705a5.5,5.5,0,0,0-1.511,3.491v9.26" fill="#5d6682"/>
      <path id="path532" d="M861.029-603.652A19.026,19.026,0,0,0,842-622.677a19.027,19.027,0,0,0-19.027,19.025A19.027,19.027,0,0,0,842-584.625a19.027,19.027,0,0,0,19.025-19.027" fill="#939bbc"/>
      <path id="path534" d="M751.193-579.872l-4.78-4.381c-4.175-6.065-6.375-14.781-6.513-21.583h0c.04.733.168,2.848.365,4.227.243,1.693.864,4.836.864,4.836a10.269,10.269,0,0,1,4.845-5.46c.728,6.377,3.009,13.62,6.788,18.709a29.185,29.185,0,0,0-1.572,3.652M745.725-606.1H739.9c0-.013,0-.027,0-.04h5.831v.04" fill="#7e85a3"/>
      <path id="path536" d="M759.79-592.437a44.965,44.965,0,0,1-2.48-13.255h.008c.048.837.172,2.787.357,4.084.241,1.693.864,4.836.864,4.836s1.243-4.421,7.253-6.563l.144-.051A45.039,45.039,0,0,0,766.966-597a29.549,29.549,0,0,0-7.176,4.56M765.8-606.1h-8.5v-.04h8.5v.04" fill="#7e85a3"/>
      <path id="path538" d="M841.309-591.877a9.745,9.745,0,0,1-9.745-9.745,9.746,9.746,0,0,1,9.745-9.745,9.745,9.745,0,0,1,9.745,9.745,9.745,9.745,0,0,1-9.745,9.745" fill="#61697f"/>
      <path id="path540" d="M785.547-535.321l-1.021-.851a27.792,27.792,0,0,0,8.011-5.1,29.591,29.591,0,0,0,3-.82l-2.823,2.652a5.471,5.471,0,0,0-1.34,2.375,29.329,29.329,0,0,1-5.827,1.743" fill="#646978"/>
      <path id="path542" d="M791.374-537.064a5.471,5.471,0,0,1,1.34-2.375l2.823-2.652a29.4,29.4,0,0,0,7.507-3.752,29.573,29.573,0,0,1-11.669,8.779" fill="#383d4b"/>
      <path id="path544" d="M918.456-569.819a7.928,7.928,0,0,1-7.928-7.928,7.927,7.927,0,0,1,7.928-7.927H925.8l-7.345,15.855" fill="#38343f"/>
      <path id="path546" d="M842.877-594.243a8.577,8.577,0,0,1-8.576-8.577,8.577,8.577,0,0,1,8.576-8.577h4.737v17.155h-4.737" fill="#38343f"/>
      <path id="path548" d="M898.032-502.409l-5.02-1.8,24.8-69.212,5.021,1.8-24.8,69.213" fill="#3d3847"/>
      <path id="path550" d="M778.313-595.6l-1.021-5.235,66.429-12.963,1.021,5.235L778.313-595.6" fill="#3d3847"/>
      <path id="path552" d="M851.2-604.169a5.06,5.06,0,0,0-5.053-4.561,5.1,5.1,0,0,0-1.444.208l-1.513-5.115a10.435,10.435,0,0,1,2.957-.427,10.376,10.376,0,0,1,10.36,9.361l-5.307.533" fill="#3d3847"/>
      <path id="path554" d="M834.546-487.583,767.678-543.26c-9.115-7.291-13.564-16.075-13.564-26.821a32.046,32.046,0,0,1,24.568-31.247l1.253,5.184a26.725,26.725,0,0,0-20.488,26.063c0,9.147,3.687,16.357,11.6,22.689l66.909,55.71-3.413,4.1" fill="#3d3847"/>
      <path id="path556" d="M857.706-562.712l-6.576-41.937,5.269-.827,6.576,41.937-5.269.827" fill="#3d3847"/>
      <path id="path558" d="M917.6-570.54,890.6-596.808l1.445-1.485,26.992,26.268L917.6-570.54" fill="#312d35"/>
      <path id="path560" d="M931.74-580.809l-15.353-34.505,1.893-.841,15.353,34.5-1.893.843" fill="#312d35"/>
      <path id="path562" d="M871.083-556.024l-2.336-4.795,54.075-26.345,2.336,4.795-54.075,26.345" fill="#3d3847"/>
      <path id="path564" d="M890.827-596.556a17.3,17.3,0,0,1-5.565-12.691A17.27,17.27,0,0,1,902.512-626.5a17.224,17.224,0,0,1,16.381,11.827l-1.967.652a15.157,15.157,0,0,0-14.415-10.407,15.2,15.2,0,0,0-15.179,15.179,15.227,15.227,0,0,0,4.9,11.167l-1.4,1.524" fill="#312d35"/>
      <path id="path566" d="M861.073-477.467a39.692,39.692,0,0,1-26.665-10.261l3.576-3.957a34.369,34.369,0,0,0,23.089,8.885,34.268,34.268,0,0,0,32.045-21.791l4.96,1.96a39.573,39.573,0,0,1-37.005,25.164" fill="#3d3847"/>
      <path id="path568" d="M870.8-556.517l0-.075.023.048-.025.027m.207-5.4.039-.991,1.477-3.695a9.275,9.275,0,0,1,.779,3.567l-2.295,1.119m-13.893-4.547H855.4a9.3,9.3,0,0,1,1.36-2.269l.356,2.269" fill="#302c35"/>
      <path id="path570" d="M854.734-563.871a9.275,9.275,0,0,1,.667-2.6h1.716l.405,2.581-2.788.015m8.183-.04-1.251-7.977a9.307,9.307,0,0,1,2.328-.293,9.3,9.3,0,0,1,2.359.3l-3.416,7.969h-.02" fill="#50526a"/>
      <path id="path572" d="M866.639-553.937a37.384,37.384,0,0,0-5.567-.415c-.277,0-.555,0-.831.009a9.316,9.316,0,0,1-5.561-8.527,9.566,9.566,0,0,1,.053-1l2.788-.015.184,1.173,5.269-.827-.059-.372h.02l3.416-7.969a9.335,9.335,0,0,1,6.173,5.275l-1.477,3.695-.039.991-2.263,1.1,2.059,4.227,0,.075a9.318,9.318,0,0,1-4.164,2.58" fill="#7982a1"/>
      <path id="path574" d="M857.706-562.712l-.184-1.173-.405-2.581-.356-2.269a9.313,9.313,0,0,1,4.905-3.152l1.251,7.977.059.372-5.269.827" fill="#342f3c"/>
      <path id="path576" d="M870.828-556.544l-.023-.048-2.059-4.227,2.263-1.1,2.295-1.119c0,.056,0,.113,0,.169a9.281,9.281,0,0,1-2.477,6.325" fill="#342f3c"/>
      <path id="path578" d="M935.37-577.747a10.2,10.2,0,0,0-10.2-10.2,10.2,10.2,0,0,0-10.2,10.2,10.2,10.2,0,0,0,10.2,10.2,10.2,10.2,0,0,0,10.2-10.2" fill="#be9972"/>
      <path id="path580" d="M937.3-577.747a10.2,10.2,0,0,0-10.2-10.2,10.2,10.2,0,0,0-10.2,10.2,10.2,10.2,0,0,0,10.2,10.2,10.2,10.2,0,0,0,10.2-10.2" fill="#e5caad"/>
      <path id="path582" d="M898.182-517.243a37.11,37.11,0,0,0-37.109-37.109,37.11,37.11,0,0,0-37.109,37.109,37.11,37.11,0,0,0,37.109,37.109,37.11,37.11,0,0,0,37.109-37.109" fill="#d3dbeb"/>
      <path id="path584" d="M898.182-517.243v0m0-.079v0m0-.06v0m0-.067v0m0-.069v0m0-.055v0m0-.056v0m0-.061v0m0-.06v0m0-.059c0-.009,0-.02,0-.031,0,.011,0,.021,0,.031m0-.06v0m0-.059v0m0-.06v0m0-.06v0m0-.06v0m0-.057v0m0-.06v0m0-.059a.244.244,0,0,0,0-.031.244.244,0,0,1,0,.031m0-.06c0-.009,0-.02,0-.031,0,.011,0,.021,0,.031m0-.056a.3.3,0,0,1,0-.033.3.3,0,0,0,0,.033m0-.061a.245.245,0,0,0,0-.031.235.235,0,0,1,0,.031m0-.06a.214.214,0,0,1,0-.029.214.214,0,0,0,0,.029" fill="#474253"/>
      <path id="path586" d="M898.158-518.579a.245.245,0,0,0,0-.031.245.245,0,0,1,0,.031m0-.059a.246.246,0,0,1,0-.031.246.246,0,0,0,0,.031m0-.061c0-.008,0-.019,0-.028,0,.008,0,.02,0,.028m0-.059a.205.205,0,0,0,0-.028.205.205,0,0,1,0,.028m0-.059a.224.224,0,0,0,0-.029.224.224,0,0,1,0,.029m0-.057a.236.236,0,0,0,0-.031.236.236,0,0,1,0,.031m0-.059a.289.289,0,0,0,0-.033.289.289,0,0,1,0,.033m0-.059a.267.267,0,0,0,0-.032.267.267,0,0,1,0,.032m0-.061a.225.225,0,0,0,0-.029.225.225,0,0,1,0,.029m0-.059c0-.008,0-.02,0-.028,0,.009,0,.019,0,.028m0-.061c0-.008,0-.017,0-.025,0,.008,0,.017,0,.025m0-.059a.16.16,0,0,1,0-.025.16.16,0,0,0,0,.025m0-.057c0-.009,0-.02,0-.028a.2.2,0,0,1,0,.028m0-.059a.2.2,0,0,1,0-.028.2.2,0,0,0,0,.028m0-.06a.185.185,0,0,0,0-.027.185.185,0,0,1,0,.027m0-.059a.185.185,0,0,1,0-.027.185.185,0,0,0,0,.027m0-.057c0-.011,0-.019,0-.029,0,.009,0,.019,0,.029m0-.059a.2.2,0,0,0,0-.028.2.2,0,0,1,0,.028m0-.061c0-.008,0-.017,0-.024s0,.015,0,.024m0-.057a.176.176,0,0,1,0-.025.176.176,0,0,0,0,.025m0-.06a.152.152,0,0,1,0-.024.159.159,0,0,0,0,.024m0-.057a.168.168,0,0,1,0-.025.167.167,0,0,0,0,.025m0-.06a.128.128,0,0,1,0-.023.128.128,0,0,0,0,.023m0-.06a.085.085,0,0,1,0-.019.084.084,0,0,0,0,.019m-.005-.06a.068.068,0,0,0,0-.016.068.068,0,0,1,0,.016m0-.056c0-.007,0-.013,0-.02s0,.013,0,.02m0-.06a.079.079,0,0,1,0-.017.078.078,0,0,0,0,.017m-.005-.059a.067.067,0,0,0,0-.016.073.073,0,0,1,0,.016m0-.06s0-.007,0-.012,0,.009,0,.012m-.005-.059v0m0-.057s0-.008,0-.012,0,.008,0,.012m-.005-.057a.054.054,0,0,0,0-.015s0,.011,0,.015m-.005-.059v0m0-.057a.055.055,0,0,1,0-.015.055.055,0,0,0,0,.015m-.005-.06s0-.007,0-.008a.02.02,0,0,0,0,.008m-.005-.059s0,0,0-.008,0,.005,0,.008m-.005-.059s0,0,0-.005,0,0,0,.005m-.005-.057s0,0,0-.007a.059.059,0,0,0,0,.007m-.012-.117h0" fill="#b1b6ce"/>
      <path id="path588" d="M890.382-515.261q.054-.81.063-1.631v-.007c0-.027,0-.053,0-.079v-.087a.047.047,0,0,0,0-.013v-.165h0a29.375,29.375,0,0,0-29.375-29.375h-.413l1.208-7.728a37.114,37.114,0,0,1,36.139,33.469h0c0,.037.008.075.011.111,0,0,0,0,0,.007,0,.019,0,.033,0,.052,0,0,0,0,0,.005l0,.051s0,.005,0,.008l0,.051s0,.005,0,.008l0,.045a.057.057,0,0,0,0,.015l0,.044v.013l0,.044a.057.057,0,0,1,0,.015c0,.016,0,.029,0,.045s0,.008,0,.012l0,.047v.011l0,.047c0,.005,0,.008,0,.012s0,.029,0,.044a.065.065,0,0,1,0,.016l0,.041a.078.078,0,0,0,0,.017c0,.013,0,.027,0,.04s0,.013,0,.02a.4.4,0,0,1,0,.04.064.064,0,0,1,0,.016l0,.041a.085.085,0,0,0,0,.019.349.349,0,0,0,0,.037.128.128,0,0,0,0,.023.288.288,0,0,0,0,.035.167.167,0,0,0,0,.025.279.279,0,0,0,0,.033.15.15,0,0,0,0,.024.288.288,0,0,0,0,.035.176.176,0,0,0,0,.025c0,.011,0,.023,0,.033s0,.016,0,.024,0,.023,0,.033a.2.2,0,0,1,0,.028c0,.009,0,.02,0,.029s0,.019,0,.029,0,.021,0,.031a.185.185,0,0,0,0,.027c0,.012,0,.021,0,.032a.177.177,0,0,1,0,.027c0,.011,0,.021,0,.032a.194.194,0,0,0,0,.028c0,.009,0,.02,0,.031s0,.019,0,.028,0,.021,0,.032a.16.16,0,0,0,0,.025.29.29,0,0,0,0,.033c0,.008,0,.017,0,.025s0,.021,0,.033,0,.02,0,.028a.236.236,0,0,1,0,.029.214.214,0,0,1,0,.029.224.224,0,0,1,0,.029.267.267,0,0,1,0,.032.161.161,0,0,1,0,.025.289.289,0,0,1,0,.033.194.194,0,0,1,0,.028.224.224,0,0,1,0,.031.2.2,0,0,1,0,.028.225.225,0,0,1,0,.029.234.234,0,0,1,0,.031.2.2,0,0,1,0,.028c0,.011,0,.02,0,.031s0,.02,0,.028a.245.245,0,0,0,0,.031.246.246,0,0,0,0,.031v.028a.234.234,0,0,1,0,.031c0,.011,0,.019,0,.029a.225.225,0,0,0,0,.029v.029a.234.234,0,0,1,0,.031c0,.009,0,.019,0,.028a.3.3,0,0,0,0,.033v.025c0,.011,0,.021,0,.031v.029a.257.257,0,0,1,0,.031c0,.009,0,.019,0,.029v.029c0,.009,0,.02,0,.029v.031a.225.225,0,0,1,0,.029v.028a.256.256,0,0,1,0,.031v.029a.234.234,0,0,1,0,.031v.029c0,.009,0,.02,0,.029v.031a.236.236,0,0,0,0,.029v.059c0,.011,0,.021,0,.031v.059a.255.255,0,0,0,0,.031v.091a.176.176,0,0,0,0,.027v.153a.186.186,0,0,0,0,.027v.179h0c0,.6-.016,1.191-.044,1.781l-7.756.2" fill="#d6ddec"/>
      <path id="path590" d="M890.447-517.243a29.375,29.375,0,0,0-29.375-29.375A29.375,29.375,0,0,0,831.7-517.243a29.374,29.374,0,0,0,29.375,29.373,29.374,29.374,0,0,0,29.375-29.373" fill="#4c4f54"/>
      <path id="path592" d="M854.709-488.667a29.044,29.044,0,0,1-22.663-28.327c0-.636.028-1.265.069-1.892l21.965-.568a6.785,6.785,0,0,0-1.2,3.868,6.815,6.815,0,0,0,5.009,6.572l-3.179,20.347" fill="#46484d"/>
      <path id="path594" d="M859.691-508.772a6.824,6.824,0,0,1-1.8-.241l.431-2.753v-2.061l-2.7-5.664-1.533.039a6.806,6.806,0,0,1,5.611-2.945,6.814,6.814,0,0,1,6.813,6.813,6.814,6.814,0,0,1-6.813,6.813" fill="#3b3b3f"/>
      <path id="path596" d="M857.887-509.013a6.815,6.815,0,0,1-5.009-6.572,6.786,6.786,0,0,1,1.2-3.868l1.533-.039,2.7,5.664v2.061l-.431,2.753" fill="#363739"/>
      <path id="path598" d="M867.679-517.243a6.814,6.814,0,0,0-6.813-6.813,6.813,6.813,0,0,0-6.813,6.813,6.813,6.813,0,0,0,6.813,6.813,6.814,6.814,0,0,0,6.813-6.813" fill="#38343f"/>
      <path id="path600" d="M869.545-517.243a6.814,6.814,0,0,0-6.813-6.813,6.814,6.814,0,0,0-6.815,6.813,6.814,6.814,0,0,0,6.815,6.813,6.814,6.814,0,0,0,6.813-6.813" fill="#b2b1b3"/>
      <path id="path602" d="M853.109-603.156a7.227,7.227,0,0,1-7.227,7.227,7.227,7.227,0,0,1-7.227-7.227,7.226,7.226,0,0,1,7.227-7.225,7.226,7.226,0,0,1,7.227,7.225" fill="#fff"/>
      <path id="path604" d="M853.109-603.156a7.227,7.227,0,0,1-7.227,7.227,7.227,7.227,0,0,1-7.227-7.227,7.226,7.226,0,0,1,7.227-7.225A7.226,7.226,0,0,1,853.109-603.156Z" fill="none" stroke="#d1a485" stroke-miterlimit="10" stroke-width="3.316"/>
      <path id="path606" d="M866.731-556a9.312,9.312,0,0,1-9.312-9.312,9.313,9.313,0,0,1,9.312-9.313H869.2v18.679L866.731-556" fill="#38343f"/>
      <path id="path608" d="M879.083-565.313a9.312,9.312,0,0,0-9.312-9.313,9.314,9.314,0,0,0-9.313,9.313A9.313,9.313,0,0,0,869.771-556a9.311,9.311,0,0,0,9.312-9.312" fill="#d3dbeb"/>
      <path id="path610" d="M876.567-565.313a6.8,6.8,0,0,0-6.8-6.8,6.8,6.8,0,0,0-6.8,6.8,6.8,6.8,0,0,0,6.8,6.8,6.8,6.8,0,0,0,6.8-6.8" fill="#939bbc"/>
      <path id="path612" d="M865.475-517.243a2.746,2.746,0,0,0-2.744-2.747,2.742,2.742,0,0,0-2.744,2.743,2.746,2.746,0,0,0,2.744,2.747,2.742,2.742,0,0,0,2.744-2.743" fill="#fff"/>
      <path id="path614" d="M890.445-516.892v0m0-.085v0m0-.087a.047.047,0,0,0,0-.013.047.047,0,0,1,0,.013m0-.089v0" fill="#c3c9d7"/>
      <path id="path616" d="M860.328-546.608h0m.057,0h0m.059,0h0m.113,0h0m.055,0h0" fill="#c1c7d7"/>
      <path id="path618" d="M860.665-546.615h0m.055,0h0m.064,0h0m.059,0h0m.051,0h0m.055,0h0m.055,0h0" fill="#c3c9d7"/>
      <path id="path620" d="M883.174-497.905a29.235,29.235,0,0,0,5.616-17.265,29.375,29.375,0,0,0-29.375-29.375,29.3,29.3,0,0,0-22.1,10.037,29.33,29.33,0,0,1,23.015-12.1h.116l.113,0h.515a29.375,29.375,0,0,1,29.375,29.375h0v.165a.045.045,0,0,1,0,.013v.087c0,.027,0,.052,0,.079v.007a29.25,29.25,0,0,1-7.271,18.987" fill="#47484d"/>
      <path id="path622" d="M697.9-558.575c-2.905,0-4.456-2.356-3.463-5.261a8.092,8.092,0,0,1,7.06-5.261c2.905,0,4.456,2.356,3.463,5.261a8.09,8.09,0,0,1-7.06,5.261" fill="#a9b0cc"/>
      <path id="path624" d="M713-558.575c-2.905,0-4.456-2.356-3.463-5.261a8.09,8.09,0,0,1,7.06-5.261c2.905,0,4.456,2.356,3.463,5.261a8.092,8.092,0,0,1-7.06,5.261" fill="#a9b0cc"/>
      <path id="path626" d="M728.107-558.575c-2.905,0-4.456-2.356-3.463-5.261A8.09,8.09,0,0,1,731.7-569.1c2.907,0,4.457,2.356,3.464,5.261a8.092,8.092,0,0,1-7.06,5.261" fill="#a9b0cc"/>
      <path id="path628" d="M743.213-558.575c-2.905,0-4.456-2.356-3.463-5.261a8.09,8.09,0,0,1,7.06-5.261c.075,0,.149,0,.224.005a27.8,27.8,0,0,0-.961,7.268q0,1.264.111,2.5a6.708,6.708,0,0,1-2.971.753" fill="#a9b0cc"/>
      <path id="path630" d="M682.544-610.219a3.358,3.358,0,0,0,3.419,4.08h82.061a4.156,4.156,0,0,0,4.145-4.144V-633.7a4.157,4.157,0,0,0-4.145-4.145H691.606a5.147,5.147,0,0,0-4.872,4.081l-4.191,23.544" fill="#939bbc"/>
      <path id="path632" d="M710.768-576.285h-.143a21.131,21.131,0,0,0,3.192-.3,17.087,17.087,0,0,1-3.049.305" fill="#707794"/>
      <path id="path634" d="M710.625-576.287c-2.915-.032-5.471-1.073-8.684-3.7-5.3-4.332-8.6-12.392-9.827-19.849a12.912,12.912,0,0,1,5.393-3.5l.012,0c.644,8.3,4.108,18.329,10.251,23.353a16.213,16.213,0,0,0,6.8,3.249c-.255.053-.5.1-.751.147a21.124,21.124,0,0,1-3.192.3" fill="#7e85a3"/>
      <path id="path636" d="M727.07-576.285c-2.975,0-5.561-1.031-8.827-3.7-5.352-4.376-8.669-12.553-9.863-20.073a13.01,13.01,0,0,1,5.188-3.276l.247-.087c.628,8.313,4.095,18.4,10.257,23.436a16.214,16.214,0,0,0,6.8,3.249,18.529,18.529,0,0,1-3.8.452" fill="#7e85a3"/>
      <path id="path638" d="M743.649-576.285c-2.681,0-5.048-.839-7.881-2.961a16.465,16.465,0,0,0,8.324,2.168c.571,0,1.171-.024,1.805-.079.513.165,1.032.3,1.552.42a18.531,18.531,0,0,1-3.8.452m-8.433-3.385q-.2-.154-.393-.316c-5.329-4.357-8.641-12.485-9.847-19.979a12.959,12.959,0,0,1,5.276-3.371l.145-.051c.536,7,3.084,15.256,7.56,20.689a3.928,3.928,0,0,1-.624-.605,1.258,1.258,0,0,0-.936-.551c-1.264,0-2.144,2.948-1.181,4.183" fill="#7e85a3"/>
      <path id="path640" d="M765.937-603.387c-.08-.931-.127-1.837-.137-2.712h2.919q.01.89.069,1.821c-.972.273-1.943.572-2.851.891m6.471-1.805q-.018-.458-.023-.907h4.46s-1.927.332-4.437.907" fill="#7f87a9"/>
      <path id="path642" d="M768.787-604.277q-.058-.93-.069-1.821h3.667q0,.448.023.907c-1.129.259-2.376.567-3.62.915" fill="#a1a7c3"/>
      <path id="path644" d="M758.539-596.773s-.623-3.143-.864-4.836c-.185-1.3-.309-3.247-.357-4.084,1.285-.261,2.119-.405,2.119-.405H765.8c.011.875.057,1.781.137,2.712l-.144.051c-6.011,2.141-7.253,6.563-7.253,6.563" fill="#6c7593"/>
      <path id="path646" d="M745.977-602.233c-.152-1.336-.236-2.633-.252-3.865h6.548q.01.766.055,1.564c-1.335.353-2.7.756-3.943,1.2a14.777,14.777,0,0,0-2.408,1.1m9.979-3.172c-.008-.233-.013-.464-.016-.693h.12c0,.22.008.443.015.667l-.119.027" fill="#7f87a9"/>
      <path id="path648" d="M752.328-604.534q-.044-.8-.055-1.564h3.667c0,.229.008.46.016.693-1.089.237-2.344.531-3.628.871" fill="#a1a7c3"/>
      <path id="path650" d="M756.074-605.432c-.007-.224-.012-.447-.015-.667H757.3s0,.065.011.183q0,.112,0,.224c-.376.077-.792.164-1.236.26" fill="#7f87a9"/>
      <path id="path652" d="M741.132-596.773s-.621-3.143-.864-4.836c-.2-1.379-.325-3.493-.365-4.227.869-.171,1.4-.263,1.4-.263h4.421c.016,1.232.1,2.529.252,3.865a10.268,10.268,0,0,0-4.845,5.46" fill="#6c7593"/>
      <path id="path654" d="M757.31-605.692q0-.112,0-.224c0,.061.007.136.012.223h-.008" fill="#6c7593"/>
      <path id="path656" d="M757.306-605.916c-.007-.117-.011-.183-.011-.183h.007l0,.183" fill="#6d7798"/>
      <path id="path658" d="M757.318-605.693c-.005-.087-.009-.161-.012-.223s0-.123,0-.183h2.135s-.833.144-2.119.405" fill="#5d6683"/>
      <path id="path660" d="M723-596.773s-.621-3.143-.864-4.836c-.175-1.227-.295-3.033-.348-3.935.248-.053.485-.1.708-.148a42.818,42.818,0,0,0,.968,7.843,6.145,6.145,0,0,0-.464,1.076" fill="#7f87a9"/>
      <path id="path662" d="M723.462-597.849a42.814,42.814,0,0,1-.968-7.843c.957-.195,1.664-.324,1.967-.379a38.9,38.9,0,0,0,.515,6.105,10.1,10.1,0,0,0-1.513,2.116m6.935-5.537c-.071-.929-.107-1.837-.107-2.712h3.983q.01.748.053,1.529c-1.324.348-2.684.745-3.929,1.183m7.557-2.048c-.007-.223-.012-.445-.015-.664h1.333c0,.128,0,.256.008.387-.4.08-.847.173-1.327.277" fill="#7f87a9"/>
      <path id="path664" d="M739.281-605.712c0-.131-.005-.259-.008-.387h.615s0,.068.011.191c0,.024,0,.048,0,.072l-.619.124" fill="#7f87a9"/>
      <path id="path666" d="M734.326-604.569c-.029-.52-.047-1.031-.053-1.529h3.667c0,.219.008.441.015.664-1.083.235-2.339.527-3.628.865" fill="#a1a7c3"/>
      <path id="path668" d="M739.9-605.836c0-.024,0-.048,0-.072q0,.032,0,.072h0" fill="#6c7593"/>
      <path id="path670" d="M724.976-599.965a38.894,38.894,0,0,1-.515-6.105l.161-.028h5.668c0,.875.036,1.783.107,2.712l-.145.051a12.96,12.96,0,0,0-5.276,3.371" fill="#6c7593"/>
      <path id="path672" d="M739.9-605.908c-.007-.123-.011-.191-.011-.191h.008c0,.063,0,.127,0,.191" fill="#6d7798"/>
      <path id="path674" d="M739.9-605.836q0-.04,0-.072c0-.064,0-.128,0-.191H741.3s-.532.092-1.4.263" fill="#5d6683"/>
      <path id="path676" d="M706.316-596.773s-.621-3.143-.863-4.836c-.168-1.169-.285-2.867-.341-3.8.207-.045.407-.089.6-.129a43.1,43.1,0,0,0,.993,7.833,5.829,5.829,0,0,0-.391.935" fill="#7f87a9"/>
      <path id="path678" d="M706.706-597.708a43.1,43.1,0,0,1-.993-7.833c.909-.193,1.665-.34,2.168-.435a39.13,39.13,0,0,0,.5,5.916,10.079,10.079,0,0,0-1.675,2.352m7.109-5.715c-.069-.916-.1-1.812-.1-2.676h2.561c.008.612.033,1.241.075,1.883-.863.247-1.721.512-2.532.793m6.149-1.719c-.012-.324-.021-.643-.025-.957h1.816s.011.212.031.555c-.557.117-1.171.252-1.821.4" fill="#7f87a9"/>
      <path id="path680" d="M716.348-604.216c-.041-.641-.067-1.271-.075-1.883h3.667c0,.315.013.633.025.957-1.137.263-2.383.575-3.617.925" fill="#a1a7c3"/>
      <path id="path682" d="M708.381-600.06a39.14,39.14,0,0,1-.5-5.916c.433-.08.68-.123.68-.123h5.151c0,.864.035,1.76.1,2.676l-.247.087a13.011,13.011,0,0,0-5.188,3.276" fill="#6c7593"/>
      <path id="path684" d="M721.786-605.544c-.02-.343-.031-.555-.031-.555h.732c0,.135,0,.271.007.407-.223.045-.46.095-.708.148" fill="#6d7798"/>
      <path id="path686" d="M722.494-605.692c0-.136-.005-.272-.007-.407h1.973v.028c-.3.055-1.009.184-1.967.379" fill="#6d7798"/>
      <path id="path688" d="M724.461-606.07v-.028h.161l-.161.028" fill="#5d6683"/>
      <path id="path690" d="M690.256-596.773s-.623-3.143-.864-4.836-.38-4.489-.38-4.489h2.568a39.125,39.125,0,0,0,.535,6.263,8.657,8.657,0,0,0-1.859,3.063m7.264-6.567c-.073-.945-.111-1.868-.111-2.759h2.643c.007.627.033,1.271.076,1.928-.893.257-1.777.536-2.608.831m6.225-1.764c-.015-.336-.023-.668-.027-.995h1.355s.013.267.039.687c-.432.093-.891.2-1.367.308" fill="#7f87a9"/>
      <path id="path692" d="M700.128-604.171c-.043-.657-.069-1.3-.076-1.928h3.667c0,.327.012.659.027.995-1.143.267-2.388.58-3.617.933" fill="#a1a7c3"/>
      <path id="path694" d="M692.114-599.836a39.118,39.118,0,0,1-.535-6.263h5.829c0,.891.037,1.813.111,2.759l-.012,0a12.912,12.912,0,0,0-5.393,3.5" fill="#6c7593"/>
      <path id="path696" d="M705.112-605.412c-.025-.42-.039-.687-.039-.687h.628c0,.184.007.369.012.557-.195.04-.395.084-.6.129" fill="#6d7798"/>
      <path id="path698" d="M705.713-605.541c-.005-.188-.009-.373-.012-.557h2.18v.123c-.5.095-1.259.241-2.168.435" fill="#6d7798"/>
      <path id="path700" d="M707.881-605.976v-.123h.68s-.247.043-.68.123" fill="#5d6683"/>
      <path id="path702" d="M728.628-583.787c.623,1.659-4.9,4.007-7.391,1-1.683-2.033-3.937,2.8-2.141,3.7s6.217,3.661,15.335.623l-5.8-5.32" fill="#7e85a3"/>
      <path id="path704" d="M712.04-583.887c.621,1.657-4.905,4.007-7.392,1-1.683-2.033-3.937,2.8-2.141,3.7s6.488,4.017,15.284.587l-5.751-5.284" fill="#7e85a3"/>
      <path id="path706" d="M746.177-584.471c.685,1.828-6.1,4.479-8.844,1.168-1.856-2.241-3.64,3.019-1.66,4.009s6.851,4.033,16.9.684l-6.393-5.861" fill="#7e85a3"/>
      <path id="path708" d="M773.85-534.047a27.846,27.846,0,0,1-6.663-.8v-.432a1.983,1.983,0,0,0-1.865-2.073,1.893,1.893,0,0,0-1.747,1.348,27.776,27.776,0,0,1-8.371-5.225h14.908l8.2,6.831a28,28,0,0,1-4.465.356" fill="#697397"/>
      <path id="path710" d="M767.188-534.851a27.6,27.6,0,0,1-3.612-1.157,1.893,1.893,0,0,1,1.747-1.348,1.983,1.983,0,0,1,1.865,2.073v.432" fill="#8991af"/>
      <path id="path712" d="M770.113-541.233H755.2a27.941,27.941,0,0,1-5.155-6.26h10.013a29.431,29.431,0,0,0,8.541,5l1.508,1.256" fill="#4f5670"/>
      <path id="path714" d="M760.063-547.493H750.05a27.618,27.618,0,0,1-3.319-8.289h6.489a29.614,29.614,0,0,0,6.843,8.289" fill="#757ea0"/>
      <path id="path716" d="M753.221-555.783h-6.489a27.931,27.931,0,0,1-.548-3.545,8.319,8.319,0,0,0,4.039-4.365,29.239,29.239,0,0,0,3,7.911" fill="#989fb8"/>
      <path id="path718" d="M780.714-539.347l-1.508-1.255h1.508v1.255" fill="#697397"/>
      <path id="path720" d="M784.526-536.172l-3.812-3.175V-540.6h7.617v-.072a29.655,29.655,0,0,0,4.205-.6,27.79,27.79,0,0,1-8.011,5.1" fill="#515465"/>
      <path id="path722" d="M778.315-534.4l-8.2-6.831-1.508-1.256a29.415,29.415,0,0,0,10.4,1.888h.2l1.508,1.255,3.812,3.175a27.577,27.577,0,0,1-6.211,1.769" fill="#322e3c"/>
      <path id="path724" d="M749.6-568.056a3.764,3.764,0,0,0-2.561-1.036,27.561,27.561,0,0,1,1.007-3.02H749.6q-.068,1.006-.069,2.031t.068,2.025" fill="#989fb8"/>
      <path id="path726" d="M749.6-572.112h-1.556a27.79,27.79,0,0,1,2.169-4.3,29.485,29.485,0,0,0-.613,4.3" fill="#636a8a"/>
      <path id="path728" d="M746.184-559.328q-.11-1.234-.111-2.5a27.8,27.8,0,0,1,.961-7.268,3.764,3.764,0,0,1,2.561,1.036,29.492,29.492,0,0,0,.627,4.363,8.319,8.319,0,0,1-4.039,4.365" fill="#868fac"/>
      <path id="path730" d="M743.793-575.037a19.2,19.2,0,0,1-8.163-1.753,21.055,21.055,0,0,1-16.785,0c-5.637,2.464-14.208,2.795-20.357-2.233a1.244,1.244,0,0,1-.176-1.751,1.244,1.244,0,0,1,1.749-.175c5.516,4.509,13.333,4.023,18.264,1.663a1.243,1.243,0,0,1,1.1.013c5.232,2.672,11.648,1.919,15.684-.013a1.243,1.243,0,0,1,1.1.013c5.232,2.672,11.647,1.919,15.684-.013a1.24,1.24,0,0,1,1.1.013c7.063,3.605,15.448,1.013,18.393-1.8a1.245,1.245,0,0,1,.364-.828,1.242,1.242,0,0,1,1.759,0l.207.207a1.245,1.245,0,0,1,.092,1.656c-3.139,3.921-13.148,7.1-21.4,3.248a22.072,22.072,0,0,1-8.624,1.753" fill="#667287"/>
      <path id="path732" d="M779.007-540.6a29.48,29.48,0,0,1-29.48-29.48,29.48,29.48,0,0,1,29.48-29.479h9.324V-540.6h-9.324" fill="#38343f"/>
      <path id="path734" d="M815.738-570.081a29.478,29.478,0,0,0-29.479-29.479,29.479,29.479,0,0,0-29.479,29.479,29.48,29.48,0,0,0,29.479,29.48,29.479,29.479,0,0,0,29.479-29.48" fill="#d3dbeb"/>
      <path id="path736" d="M809.627-570.081a23.367,23.367,0,0,0-23.368-23.367,23.367,23.367,0,0,0-23.368,23.367,23.368,23.368,0,0,0,23.368,23.368,23.367,23.367,0,0,0,23.368-23.368" fill="#4c4f54"/>
      <path id="path738" d="M783.814-563.151a6.119,6.119,0,0,1-6.247-5.983,6.056,6.056,0,0,1,4.949-5.856,5.778,5.778,0,0,0-2.711,4.9,5.781,5.781,0,0,0,5.78,5.781l.719.019h1.179a6.4,6.4,0,0,1-3.669,1.14m6.068-4.552v-2.864a5.777,5.777,0,0,1,.18,1.432,5.777,5.777,0,0,1-.18,1.432" fill="#414247"/>
      <path id="path740" d="M789.882-564.291h-2.4a6,6,0,0,0,2.4-3.412v3.412m0-6.276a6.2,6.2,0,0,0-6.068-4.551,6.6,6.6,0,0,0-1.3.128,5.759,5.759,0,0,1,3.068-.88h4.3v5.3" fill="#3c3c42"/>
      <path id="path742" d="M787.483-564.291H786.3l-.719-.019a5.781,5.781,0,0,1-5.78-5.781,5.778,5.778,0,0,1,2.711-4.9,6.6,6.6,0,0,1,1.3-.128,6.2,6.2,0,0,1,6.068,4.551v2.864a6,6,0,0,1-2.4,3.412" fill="#333336"/>
      <path id="path744" d="M794.373-570.088a5.782,5.782,0,0,0-5.78-5.781,5.778,5.778,0,0,0-5.779,5.78,5.779,5.779,0,0,0,5.779,5.78,5.779,5.779,0,0,0,5.78-5.779" fill="#c7cbd6"/>
      <path id="path746" d="M809.551-568.177v0m.011-.137a.079.079,0,0,1,0-.017.079.079,0,0,0,0,.017m0-.057a.027.027,0,0,1,0-.011.027.027,0,0,0,0,.011m.005-.084c0-.009,0-.017,0-.028,0,.009,0,.019,0,.028m0-.06c0-.017,0-.035,0-.053,0,.019,0,.036,0,.053m.005-.083a.365.365,0,0,0,0-.037.347.347,0,0,1,0,.037m0-.064,0-.056,0,.056m.005-.081c0-.015,0-.031,0-.045,0,.015,0,.031,0,.045m0-.064c0-.02,0-.04,0-.06,0,.02,0,.04,0,.06m0-.083c0-.017,0-.033,0-.052,0,.017,0,.035,0,.052m0-.068c0-.02,0-.039,0-.059,0,.019,0,.039,0,.059m0-.079c0-.023,0-.043,0-.064,0,.021,0,.043,0,.064m0-.069c0-.021,0-.041,0-.061,0,.02,0,.04,0,.061m0-.079c0-.023,0-.043,0-.065,0,.021,0,.044,0,.065m0-.071c0-.021,0-.043,0-.064,0,.021,0,.043,0,.064m0-.076c0-.023,0-.045,0-.068,0,.023,0,.045,0,.068m0-.076c0-.02,0-.041,0-.061,0,.02,0,.041,0,.061m0-.075c0-.023,0-.044,0-.067,0,.023,0,.045,0,.067m0-.077c0-.02,0-.041,0-.061,0,.021,0,.041,0,.061m0-.071c0-.023,0-.045,0-.068,0,.023,0,.044,0,.068m0-.08c0-.02,0-.041,0-.061,0,.02,0,.041,0,.061m0-.071v0m0-.081c0-.021,0-.041,0-.063,0,.021,0,.043,0,.063m0-.068v0m0-.083v-.068h0v.067m-23.849-23.431h0m.055,0h0m.064,0h0m.067,0h0m.089,0h0m.069,0h0m.069,0h0" fill="#c1c7d9"/>
      <path id="path748" d="M798.535-550.2a23.335,23.335,0,0,0,9.848-19.055,23.367,23.367,0,0,0-23.367-23.368,23.246,23.246,0,0,0-12.276,3.485,23.247,23.247,0,0,1,13.037-4.309h.481a23.367,23.367,0,0,1,23.368,23.368v.155c0,.021,0,.041,0,.063v.091c0,.02,0,.041,0,.061v.012c0,.023,0,.045,0,.068v.009c0,.02,0,.041,0,.061v.011c0,.023,0,.044,0,.067v.013c0,.02,0,.041,0,.061v.008c0,.023,0,.045,0,.068v.012c0,.021,0,.043,0,.064v.005c0,.023,0,.043,0,.065v.017c0,.02,0,.04,0,.061v.005c0,.021,0,.041,0,.064a.105.105,0,0,1,0,.02c0,.02,0,.039,0,.059v.016c0,.019,0,.035,0,.052a.135.135,0,0,0,0,.023c0,.02,0,.04,0,.06a.085.085,0,0,0,0,.019c0,.015,0,.031,0,.045s0,.017,0,.025l0,.056a.177.177,0,0,1,0,.027.362.362,0,0,1,0,.037.226.226,0,0,1,0,.029l0,.053c0,.011,0,.021,0,.032s0,.019,0,.028l0,.073a.026.026,0,0,0,0,.011c0,.013,0,.027,0,.04a.078.078,0,0,0,0,.017c0,.045-.007.089-.011.133v0a23.362,23.362,0,0,1-11.016,17.98" fill="#46484d"/>
      <path id="path750" d="M791.142-570.089a2.549,2.549,0,0,0-2.549-2.548,2.546,2.546,0,0,0-2.548,2.548,2.548,2.548,0,0,0,2.548,2.549,2.549,2.549,0,0,0,2.549-2.549" fill="#fff"/>
      <path id="path752" d="M848.194-603.156a2.311,2.311,0,0,1-2.312,2.312,2.311,2.311,0,0,1-2.312-2.312,2.312,2.312,0,0,1,2.312-2.312,2.312,2.312,0,0,1,2.312,2.312" fill="#939bbc"/>
      <path id="path754" d="M905.14-609.247a2.627,2.627,0,0,0-2.628-2.627,2.627,2.627,0,0,0-2.627,2.627,2.627,2.627,0,0,0,2.627,2.628,2.627,2.627,0,0,0,2.628-2.628" fill="#fff"/>
      <path id="path756" d="M686.629-605.062h109.42v-2.072H683.174l3.455,2.072" fill="#5f637e"/>
      <path id="path758" d="M755-642.164c.751,1.661,4.215,2.643,9.456,2.388,7.7-.373,16.313-3.268,19.245-6.465,1.053-1.149,1.229-2.18.665-3.013l-.785-4.035-29.695,6.347L755-642.164" fill="#f19738"/>
      <path id="path760" d="M754.768-649.542c-2.931,3.2.932,5.488,8.631,5.115s16.313-3.267,19.245-6.465-.933-5.487-8.631-5.115-16.313,3.268-19.245,6.465" fill="#fbc941"/>
      <path id="path762" d="M735.471-635.82a1.778,1.778,0,0,1-1.731-1.381c-1.132-4.933-5.735-14.916-9.313-16.159a1.387,1.387,0,0,0-1.475.288,11.969,11.969,0,0,0-3.08,3.872c-1.608,2.829-3.18,4.743-8.805,3.577a1.779,1.779,0,0,1-1.38-2.1,1.778,1.778,0,0,1,2.1-1.38c3.524.731,3.835.184,4.991-1.851a15.577,15.577,0,0,1,3.945-4.888,4.891,4.891,0,0,1,4.868-.876c6.047,2.1,10.805,15.2,11.613,18.724a1.778,1.778,0,0,1-1.335,2.131,1.793,1.793,0,0,1-.4.045" fill="#38343f"/>
      <path id="path764" d="M711.34-644.013c.369,0,3.228-.107,3.228-.107l1.587,6.245H704.513l-.9-3.811,7.727-2.328" fill="#835e53"/>
      <path id="path766" d="M703.958-642.752c-1.087,1.185.345,2.033,3.2,1.895s6.044-1.211,7.131-2.395-.345-2.033-3.2-1.895-6.044,1.211-7.129,2.395" fill="#835e53"/>
      <path id="path768" d="M703.952-646.161c-.917,1,.291,1.717,2.7,1.6s5.1-1.023,6.021-2.023-.292-1.717-2.7-1.6-5.105,1.023-6.021,2.023" fill="#939bbc"/>
      <path id="path770" d="M757.209-649.205c.561,1.241,3.148,1.973,7.063,1.784,5.749-.279,12.184-2.44,14.373-4.828.787-.857.917-1.628.5-2.251l-.587-3.013-22.176,4.74.831,3.568" fill="#f19738"/>
      <path id="path772" d="M757.038-654.714c-2.189,2.388.7,4.1,6.445,3.82s12.184-2.44,14.373-4.828-.7-4.1-6.445-3.82-12.184,2.44-14.373,4.828" fill="#fbc941"/>
      <path id="path774" d="M741.162-644.013c.371,0,3.228-.107,3.228-.107l1.588,6.245H734.337l-.9-3.811,7.725-2.328" fill="#835e53"/>
      <path id="path776" d="M733.782-642.752c-1.087,1.185.345,2.033,3.2,1.895s6.044-1.211,7.131-2.395-.347-2.033-3.2-1.895-6.044,1.211-7.129,2.395" fill="#835e53"/>
      <path id="path778" d="M733.774-646.161c-.916,1,.292,1.717,2.7,1.6s5.105-1.023,6.023-2.023-.292-1.717-2.7-1.6-5.105,1.023-6.023,2.023" fill="#939bbc"/>
      <path id="path780" d="M725.71-644.013c.371,0,3.228-.107,3.228-.107l1.588,6.245H718.885l-.9-3.811,7.725-2.328" fill="#835e53"/>
      <path id="path782" d="M718.33-642.752c-1.087,1.185.345,2.033,3.2,1.895s6.044-1.211,7.131-2.395-.345-2.033-3.2-1.895-6.044,1.211-7.129,2.395" fill="#835e53"/>
      <path id="path784" d="M718.322-646.161c-.917,1,.292,1.717,2.7,1.6s5.1-1.023,6.021-2.023-.292-1.717-2.7-1.6-5.105,1.023-6.023,2.023" fill="#939bbc"/>
      <path id="path786" d="M703.678-645.442l-.615-2.613,9.289-1.987.515,2.38.087.331h.011l.513,2.38c.176.26.121.584-.209.943-.916,1-3.612,1.907-6.021,2.024-1.64.079-2.724-.228-2.957-.748l-.616-2.613.06-.012-.056-.083" fill="#939bbc"/>
      <path id="path788" d="M733.5-645.442l-.616-2.613,9.292-1.987.512,2.38.087.331h.012l.513,2.38c.176.26.121.584-.208.943-.917,1-3.613,1.907-6.023,2.024-1.64.079-2.724-.228-2.959-.748l-.615-2.613.06-.012-.056-.083" fill="#939bbc"/>
      <path id="path790" d="M718.05-645.442l-.616-2.613,9.292-1.987.512,2.38.087.331h.012l.512,2.38c.177.26.123.584-.207.943-.917,1-3.613,1.907-6.021,2.024-1.641.079-2.724-.228-2.96-.748l-.615-2.613.06-.012-.056-.083" fill="#939bbc"/>
      <path id="path792" d="M733.049-578.369H688.84a4.358,4.358,0,0,1-4.353-4.352v-10.115h4.56v9.907h44v4.56" fill="#b19172"/>
      <path id="path794" d="M719.372-582.791H684.694a4.357,4.357,0,0,1-4.352-4.352v-10.115H684.9v9.908h34.471v4.559" fill="#d3dbeb"/>
      <path id="path796" d="M744.245-572.251v-7.984c0-1.184-.545-3.937-5.6-3.937h-6.428a3.523,3.523,0,0,0-3.524,3.523,3.523,3.523,0,0,0,3.524,3.523H737.2v4.876h7.047" fill="#43404c"/>
      <path id="path798" d="M730.77-572.251v-10.471a5.6,5.6,0,0,0-5.6-5.6h-6.429a3.523,3.523,0,0,0-3.523,3.523,3.523,3.523,0,0,0,3.523,3.524h4.979v9.02h7.047" fill="#4c4f54"/>
      <path id="path800" d="M678.338-597.809c0,.836.933,1.52,2.073,1.52h4.42c1.14,0,2.073-.684,2.073-1.52s-.933-1.52-2.073-1.52h-4.42c-1.14,0-2.073.684-2.073,1.52" fill="#4c4f54"/>
      <path id="path802" d="M701.342-614.8a1.983,1.983,0,0,0,2.072,1.865h69.217A1.983,1.983,0,0,0,774.7-614.8a1.983,1.983,0,0,0-2.072-1.865H703.414a1.983,1.983,0,0,0-2.072,1.865" fill="#d3dbeb"/>
      <path id="path804" d="M719.1-635.978a1.983,1.983,0,0,0,2.072,1.865h62.311a1.983,1.983,0,0,0,2.072-1.865,1.983,1.983,0,0,0-2.072-1.865H721.168a1.983,1.983,0,0,0-2.072,1.865" fill="#bec6db"/>
      <path id="path806" d="M708.32-635.978a1.983,1.983,0,0,0,2.072,1.865H713.5a1.984,1.984,0,0,0,2.073-1.865,1.984,1.984,0,0,0-2.073-1.865h-3.108a1.983,1.983,0,0,0-2.072,1.865" fill="#bec6db"/>
      <path id="path808" d="M871.938-565.315a2.165,2.165,0,0,0-2.168-2.163,2.169,2.169,0,0,0-2.167,2.167,2.164,2.164,0,0,0,2.168,2.163,2.167,2.167,0,0,0,2.167-2.167" fill="#fff"/>
      <path id="path810" d="M787.289-390.991H973.4l-8.591-34.721H787.289v34.721" fill="#9fd62b"/>
      <path id="path812" d="M591.152-543.561,693.77-524.94s10.484,1.348,16.636,16.521h52.254c3.519,0,6.771,3.212,7.227,7.137l5.948,42.753H762.07l-3.636-33.092c-.456-3.925-3.708-7.136-7.227-7.136H698.954v-3.221C692.8-517.151,682.318-518.5,682.318-518.5L558.94-539.535l32.212-4.027" fill="#5cb733"/>
      <path id="path814" d="M976.327-458.527l3.637-33.092c.456-3.925,3.708-7.136,7.227-7.136l31.416,0h6.812s-4.116-16.353-7.635-16.353l1.371,6.692h-8.148c-.963,0,1.1-.751-2.421-.751l-31.416,0c-3.519,0-6.771,3.961-7.227,7.887l-5.948,42.753h12.332" fill="#9fd62b"/>
      <path id="path816" d="M598.31-543.561,700.929-524.94s10.483,1.348,16.636,16.521h52.253c3.52,0,6.772,3.212,7.228,7.137l5.947,42.753-12.212,6.513-5.188-39.605c-.456-3.925-3.708-7.136-7.227-7.136H706.112v-3.221c-6.153-15.173-16.636-16.521-16.636-16.521L566.1-539.535l32.213-4.027" fill="#9fd62b"/>
      <path id="path818" d="M603.9-538.655c-9.305,2.416-13.265,3.605-31.965.139-19.332-3.584-20.456-3.359-27.615-13.021s6.741-6.241,8.756-4.428c3.58,3.22,3.759,7.247,20.044,11.071,8.247,1.937,31.855,1.007,31.855,1.007l-1.075,5.233" fill="#9fd62b"/>
      <path id="path820" d="M736.376-458.714v27.944h-22.1c0-9.741,7.788-19.453,7.788-27.944h14.316" fill="#5cb733"/>
      <path id="path822" d="M609.072-484.017a39.842,39.842,0,0,1,7.167.645c-31.179,5.621-46.467,54.309-46.467,114.22H555.456c0-64.329,17.616-114.865,53.616-114.865" fill="#9ed62e"/>
      <path id="path824" d="M237.463-484.017a38.157,38.157,0,0,1,7.075.665c-31.116,5.689-46.375,48.615-46.375,108.464H183.848c0-64.328,17.616-109.129,53.616-109.129" fill="#9ed62e"/>
      <path id="path826" d="M442.26-385.344l-31.5-23.484v23.484Z" fill="#9fd62b"/>
      <path id="path828" d="M440.147-651.722l-24.371,18.173v-18.173Z" fill="#9fd62b"/>
      <path id="path830" d="M735.033-391.383h19.389v-39.364H735.033Z" fill="#5cb733"/>
      <path id="path832" d="M933.451-390.842h10.468V-411.87H933.451v21.028" fill="#5cb733"/>
      <path id="path834" d="M950.319-631.928h-3.973a1.337,1.337,0,0,1-1.333-1.333v-.051a1.337,1.337,0,0,1,1.333-1.333h3.973a1.337,1.337,0,0,1,1.333,1.333v.051a1.337,1.337,0,0,1-1.333,1.333" fill="#fbc3c0"/>
      <path id="path836" d="M630.461-477.274h-9.029v-1.615h8.22c.272.159.541.323.809.489v1.125" fill="#265251"/>
      <path id="path838" d="M629.652-478.888h-8.22v-3.577a36.685,36.685,0,0,1,8.22,3.577" fill="#265251"/>
      <path id="path840" d="M630.461-478.4c-.268-.167-.537-.331-.809-.489a36.691,36.691,0,0,0-8.22-3.577v-6.264a4.067,4.067,0,0,0-4.055-4.056h9.028a4.068,4.068,0,0,1,4.056,4.056V-478.4" fill="#519132"/>
      <path id="path842" d="M607.241-334.349h26.767V-476.287H607.241Z" fill="#2274ff"/>
      <path id="path844" d="M234.434-334.349H261.2V-476.287H234.434Z" fill="#f1473f"/>
      <path id="path846" d="M234.434-334.635H261.2V-476.287H234.434Z" fill="#b73932"/>
      <path id="path848" d="M607.241-345.531l26.767-7.887V-474.853H607.241v129.322" fill="#003ca2"/>
      <path id="path850" d="M535.224-353.136l26.768-7.887v-8.129H535.224v16.016" fill="#003ca2"/>
      <path id="path852" d="M720.684-334.349h26.768v-97.493H720.684Z" fill="#2274ff"/>
      <path id="path854" d="M720.684-387.4l26.768-6.213V-420.85H720.684V-387.4" fill="#003ca2"/>
      <path id="path856" d="M184.086-302.807H735.98v-37.278H184.086Z" fill="#003ca2"/>
      <path id="path858" d="M594.643-470.934a4.067,4.067,0,0,0,4.056,4.055h18.679a4.066,4.066,0,0,0,4.055-4.055v-17.8a4.067,4.067,0,0,0-4.055-4.056H598.7a4.068,4.068,0,0,0-4.056,4.056v17.8" fill="#5c4d4e"/>
      <path id="path860" d="M593.432-470.934a4.067,4.067,0,0,0,4.056,4.055h15.747a4.066,4.066,0,0,0,4.055-4.055v-17.8a4.067,4.067,0,0,0-4.055-4.056H597.488a4.068,4.068,0,0,0-4.056,4.056v17.8" fill="#6d605d"/>
      <path id="path862" d="M606.285-466.879h37.6v-10.394h-37.6Z" fill="#6d605d"/>
      <path id="path864" d="M643.886-466.879H629.334c0-4.391-.952-7.593-4.54-10.395H640.73l3.156,10.072v.323" fill="#664a49"/>
      <path id="path866" d="M607.241-456.454h26.767v-10.395H607.241Z" fill="#2274ff"/>
      <path id="path868" d="M720.684-420.85h26.768v-.119H720.684Z" fill="#a32f29"/>
      <path id="path870" d="M720.684-410.575h26.768v-10.274H720.684Z" fill="#003ca2"/>
      <path id="path872" d="M656.526-432.1c-5.32-22.32-14.377-38.927-27.252-47.256l14.872-10.549,16.571,52.869-4.191,4.936" fill="#5cb733"/>
      <path id="path874" d="M248.094-477.274h7.01v-1.615h-7.01Z" fill="#19302e"/>
      <path id="path876" d="M255.1-478.888h-7.011v-3.863a33.9,33.9,0,0,1,7.011,2.869v.993" fill="#19302e"/>
      <path id="path878" d="M255.1-479.882a33.906,33.906,0,0,0-7.011-2.869v-5.979a4.067,4.067,0,0,0-4.055-4.056h7.011a4.068,4.068,0,0,1,4.055,4.056v8.848" fill="#519132"/>
      <path id="path880" d="M221.3-470.934a4.067,4.067,0,0,0,4.056,4.055h18.679a4.066,4.066,0,0,0,4.055-4.055v-17.8a4.067,4.067,0,0,0-4.055-4.056H225.361a4.068,4.068,0,0,0-4.056,4.056v17.8" fill="#5c4d4e"/>
      <path id="path882" d="M220.625-470.934a4.067,4.067,0,0,0,4.056,4.055h15.747a4.067,4.067,0,0,0,4.056-4.055v-17.8a4.068,4.068,0,0,0-4.056-4.056H224.681a4.068,4.068,0,0,0-4.056,4.056v17.8" fill="#6d605d"/>
      <path id="path884" d="M233.478-466.879h37.6v-10.394h-37.6Z" fill="#6d605d"/>
      <path id="path886" d="M271.081-466.879H256.527c0-4.391-.952-7.593-4.54-10.395h15.936l3.157,10.072v.323" fill="#534643"/>
      <path id="path888" d="M234.434-456.454H261.2v-10.395H234.434Z" fill="#722523"/>
      <path id="path890" d="M285.219-432.116c-5.615-22.248-16.317-39.319-27.875-46.892L241.71-501.044l40.092,1.5,42.805,86.689-39.388-19.261" fill="#5cb733"/>
      <path id="path892" d="M716.962-420.8H751.65V-432.11H716.962V-420.8" fill="#6d605d"/>
      <path id="path894" d="M715.688-420.8H733.1V-432.11H715.688V-420.8" fill="#5c4d4e"/>
      <path id="path896" d="M700.29-302.807h327.58v-37.277H700.29v37.277" fill="#2274ff"/>
      <path id="path898" d="M791.638-404.6H944.807v-8.6H791.638v8.6" fill="#5cb733"/>
      <path id="path900" d="M903.874-475.705a4.068,4.068,0,0,0,4.055,4.056h15.748a4.068,4.068,0,0,0,4.055-4.056v-17.8a4.067,4.067,0,0,0-4.055-4.055H907.928a4.068,4.068,0,0,0-4.055,4.055v17.8" fill="#6d605d"/>
      <path id="path902" d="M799.911-923.082a6.425,6.425,0,0,0-6.425-6.425,6.424,6.424,0,0,0-6.425,6.425,6.425,6.425,0,0,0,6.425,6.425,6.426,6.426,0,0,0,6.425-6.425" fill="#6d605d"/>
      <path id="path904" d="M376.223-765.562h-3.6v-29.593h8.528v6.165h-4.932v23.428" fill="#c7c0bd"/>
      <path id="path906" d="M450.884-765.562H435.294v-24.721L450.606-779.6l.279-.379v14.421" fill="#fff"/>
      <path id="path908" d="M493.789-853.938a5.529,5.529,0,0,1-3.212-1.028,5.55,5.55,0,0,1-1.305-7.739L502.2-880.886a5.548,5.548,0,0,1,7.737-1.305,5.547,5.547,0,0,1,1.305,7.737l-12.932,18.183a5.54,5.54,0,0,1-4.525,2.333" fill="#99a0b4"/>
      <path id="path910" d="M510.368-866.673a3.709,3.709,0,0,0,3.7-3.7v-22.195a3.71,3.71,0,0,0-3.7-3.7H486.223a3.711,3.711,0,0,0-3.7,3.7v22.195a3.71,3.71,0,0,0,3.7,3.7h24.145" fill="#003ca2"/>
      <path id="path912" d="M791.237-908.3a3.711,3.711,0,0,0,3.7-3.7V-934.2a3.71,3.71,0,0,0-3.7-3.7H767.093a3.71,3.71,0,0,0-3.7,3.7V-912a3.711,3.711,0,0,0,3.7,3.7h24.144" fill="#003ca2"/>
      <path id="path914" d="M399.394-908.3a3.475,3.475,0,0,0,3.5-3.695l-2.067-38.235a3.96,3.96,0,0,0-3.9-3.695H377.714a3.961,3.961,0,0,0-3.9,3.695L371.748-912a3.477,3.477,0,0,0,3.5,3.695h24.145" fill="#99a0b4"/>
      <path id="path916" d="M416.306-946.7a23.932,23.932,0,0,0-23.932-23.932A23.932,23.932,0,0,0,368.44-946.7a23.933,23.933,0,0,0,23.933,23.933A23.933,23.933,0,0,0,416.306-946.7" fill="#544847"/>
      <path id="path918" d="M476.1-829.063a5.519,5.519,0,0,1-3.212-1.028,5.548,5.548,0,0,1-1.305-7.737L489.272-862.7a5.548,5.548,0,0,1,7.737-1.307,5.549,5.549,0,0,1,1.305,7.739L480.621-831.4a5.54,5.54,0,0,1-4.525,2.333" fill="#aeb4cb"/>
      <path id="path920" d="M376.223-669.466h36.992V-788.99H376.223Z" fill="#aeb4cb"/>
      <path id="path922" d="M381.155-713.774h27.128v-186.19H381.155Z" fill="#aeb4cb"/>
      <path id="path924" d="M404.072-706.133h-3.715a4.012,4.012,0,0,1-4-4v-3.641h11.715v3.641a4.012,4.012,0,0,1-4,4" fill="#e1e4ec"/>
      <path id="path926" d="M408.072-713.774H396.358v-31.3a4.012,4.012,0,0,1,4-4h3.715a4.012,4.012,0,0,1,4,4v31.3" fill="#e1e4ec"/>
      <path id="path928" d="M400.215-802.021a3.943,3.943,0,0,1-3.857-4v-23.333a3.942,3.942,0,0,1,3.857-4,3.942,3.942,0,0,1,3.857,4v23.333a3.943,3.943,0,0,1-3.857,4" fill="#e1e4ec"/>
      <path id="path930" d="M381.155-832.022V-849.41h27.128v11l-27.128,6.391" fill="#8d91a3"/>
      <path id="path932" d="M428.636-946.7A23.932,23.932,0,0,0,404.7-970.632,23.932,23.932,0,0,0,380.771-946.7,23.933,23.933,0,0,0,404.7-922.767,23.933,23.933,0,0,0,428.636-946.7" fill="#6d605d"/>
      <path id="path934" d="M376.223-746.689v-30.879a4.012,4.012,0,0,1,4-4h.932v33.788l-4.932,1.091" fill="#8d91a3"/>
      <path id="path936" d="M408.283-753.784v-27.784h.932a4.012,4.012,0,0,1,4,4v22.692l-4.932,1.092" fill="#8d91a3"/>
      <path id="path938" d="M381.155-747.779v-33.788h27.128v27.784l-27.128,6" fill="#8d91a3"/>
      <path id="path940" d="M368.824-853.41a4.012,4.012,0,0,0,4,4h43.788a4.011,4.011,0,0,0,4-4v-34.569a4.011,4.011,0,0,0-4-4H372.824a4.012,4.012,0,0,0-4,4v34.569" fill="#2274ff"/>
      <path id="path942" d="M363.892-295.77h61.653V-679.33H363.892Z" fill="#2274ff"/>
      <path id="path944" d="M806.034-908.3a3.71,3.71,0,0,0,3.7-3.7V-934.2a3.709,3.709,0,0,0-3.7-3.7H781.889a3.709,3.709,0,0,0-3.7,3.7V-912a3.71,3.71,0,0,0,3.7,3.7h24.145" fill="#2274ff"/>
      <path id="path946" d="M419.086-908.3a3.477,3.477,0,0,0,3.5-3.695l-2.067-38.235a3.96,3.96,0,0,0-3.9-3.695H397.407a3.96,3.96,0,0,0-3.9,3.695L391.442-912a3.477,3.477,0,0,0,3.5,3.695h24.144" fill="#c9cde3"/>
      <path id="path948" d="M517.765-866.673a3.71,3.71,0,0,0,3.7-3.7v-22.195a3.711,3.711,0,0,0-3.7-3.7H493.621a3.711,3.711,0,0,0-3.7,3.7v22.195a3.71,3.71,0,0,0,3.7,3.7h24.144" fill="#003ca2"/>
      <path id="path950" d="M511.729-876.536a5.42,5.42,0,0,0-5.42-5.42,5.42,5.42,0,0,0-5.419,5.42,5.42,5.42,0,0,0,5.419,5.42,5.42,5.42,0,0,0,5.42-5.42" fill="#6d605d"/>
      <path id="path952" d="M521.465-877.359h0v-15.207a3.711,3.711,0,0,0-3.7-3.7H489.921v-10.687h31.544v29.593" fill="#ebc2c0"/>
      <path id="path954" d="M489.921-892.566v-3.7h3.7a3.711,3.711,0,0,0-3.7,3.7" fill="#a62d27"/>
      <path id="path956" d="M521.465-877.359h-9.8a5.421,5.421,0,0,0-5.359-4.6,5.421,5.421,0,0,0-5.357,4.6H489.921v-15.207a3.711,3.711,0,0,1,3.7-3.7h24.144a3.711,3.711,0,0,1,3.7,3.7v15.207" fill="#003ca2"/>
      <path id="path958" d="M511.668-877.359H500.952a5.421,5.421,0,0,1,5.357-4.6,5.421,5.421,0,0,1,5.359,4.6" fill="#644844"/>
      <path id="path960" d="M381.155-849.41H368.824v-4a4.012,4.012,0,0,0,4,4h8.331m-12.331-38.569v-4h.308v-14.973h51.223v17.564a4.016,4.016,0,0,0-3.743-2.591h-8.329v-8.331a4.013,4.013,0,0,0-4-4H385.155a4.013,4.013,0,0,0-4,4v8.331h-8.331a4.012,4.012,0,0,0-4,4" fill="#db9894"/>
      <path id="path962" d="M408.283-891.979h0v-7.985H381.155v-.345a4.013,4.013,0,0,1,4-4h19.128a4.013,4.013,0,0,1,4,4v8.331" fill="#b57b77"/>
      <path id="path964" d="M381.155-891.979h27.128v-7.985H381.155Z" fill="#75555d"/>
      <path id="path966" d="M391.019-849.41H372.824a4.012,4.012,0,0,1-4-4v-34.569a4.012,4.012,0,0,1,4-4h43.788a4.016,4.016,0,0,1,3.743,2.591v12.029H406.4L391.019-849.41" fill="#003ca2"/>
      <path id="path968" d="M450.458-780.049l43.435-57.6-19.276-14.541-43.435,57.6,19.276,14.541" fill="#2274ff"/>
      <path id="path970" d="M450.884-779.983v-.632l18.952-25.131-18.952,25.763m-15.591-10.3-4.851-3.383,7.125-9.5h.084l-6.471,8.58,4.112,3.1v1.2" fill="#d2837e"/>
      <path id="path972" d="M450.606-779.6l-15.312-10.679v-1.2l15.164,11.439.427-.567v.632l-.279.379" fill="#d2837e"/>
      <path id="path974" d="M450.458-780.049l-15.164-11.439-4.112-3.1,6.471-8.58h23.035l18.291-15-9.141,12.427-18.952,25.131-.427.567" fill="#003ca2"/>
      <path id="path976" d="M830.394-889.806a4.012,4.012,0,0,0,4-4v-12.963a4.012,4.012,0,0,0-4-4H364.487a4.012,4.012,0,0,0-4,4v12.963a4.012,4.012,0,0,0,4,4H830.394" fill="#4c4f54"/>
      <path id="path978" d="M669.094-886.107a4.012,4.012,0,0,0,4-4v-20.36a4.012,4.012,0,0,0-4-4H363.254a4.013,4.013,0,0,0-4,4v20.36a4.013,4.013,0,0,0,4,4H669.094" fill="#2274ff"/>
      <path id="path980" d="M377-886.107a4.012,4.012,0,0,0,4-4v-20.36a4.012,4.012,0,0,0-4-4H363.254a4.013,4.013,0,0,0-4,4v20.36a4.013,4.013,0,0,0,4,4H377" fill="#003ca2"/>
      <path id="path982" d="M460.071-765.562v-29.593H362.918v29.593h97.153" fill="#2274ff"/>
      <path id="path984" d="M383.622-295.77H363.892V-399.58q.632-3.938,1.171-8c2.695-20.544,4.733-39.031,6.172-56.2h11.713V-578.147H363.892v-93.785h19.729V-295.77M363.892-442.864v-20.917h1.989q-.852,10.124-1.989,20.917" fill="#003ca2"/>
      <path id="path986" d="M394.067-348.934a4.012,4.012,0,0,0,4,4H411.1a4.012,4.012,0,0,0,4-4V-583.181a4.012,4.012,0,0,0-4-4H398.067a4.012,4.012,0,0,0-4,4v234.247" fill="#fbcd14"/>
      <path id="path988" d="M363.892-679.33v0" fill="#f36544"/>
      <path id="path990" d="M394.067-365.9,415.1-349.866v-21.12l-21.032-16.029v21.12" fill="#fff"/>
      <path id="path992" d="M394.067-413.984,415.1-397.955v-21.12L394.067-435.1v21.12" fill="#fff"/>
      <path id="path994" d="M394.067-462.074,415.1-446.044v-21.12l-21.032-16.029v21.12" fill="#fff"/>
      <path id="path996" d="M394.067-510.163,415.1-494.132v-21.121l-21.032-16.029v21.12" fill="#fff"/>
      <path id="path998" d="M394.067-558.252,415.1-542.221v-21.12l-21.032-16.031v21.12" fill="#fff"/>
      <path id="path1000" d="M359.938-675.932a4.012,4.012,0,0,0,4,4h65.007a4.011,4.011,0,0,0,4-4v-12.963a4.011,4.011,0,0,0-4-4H363.938a4.012,4.012,0,0,0-4,4v12.963" fill="#6d605d"/>
      <path id="path1002" d="M423.552-675.932H411.435a4.012,4.012,0,0,1-4-4v-4.963a4.012,4.012,0,0,1,4-4h12.117a4.012,4.012,0,0,1,4,4v4.963a4.012,4.012,0,0,1-4,4" fill="#ac958e"/>
      <path id="path1004" d="M363.892-671.932h0" fill="#a1412e"/>
      <path id="path1006" d="M378.276-671.932H363.892a4.014,4.014,0,0,1-3.955-4v-12.963a4.012,4.012,0,0,1,4-4h14.339a4.013,4.013,0,0,1,4,4v12.963a4.013,4.013,0,0,1-4,4" fill="#443a3b"/>
      <path id="path1008" d="M932.659-577.747a5.554,5.554,0,0,0-5.553-5.553,5.554,5.554,0,0,0-5.555,5.553,5.554,5.554,0,0,0,5.555,5.555,5.554,5.554,0,0,0,5.553-5.555" fill="#fff"/>
      <path id="path1010" d="M776.826-758.022a6.686,6.686,0,0,0,6.667,6.667h22.667a6.686,6.686,0,0,0,6.667-6.667v-52a6.686,6.686,0,0,0-6.667-6.667H783.493a6.686,6.686,0,0,0-6.667,6.667v52" fill="#4c4f54"/>
      <path id="path1012" d="M801.251-771.689a6.426,6.426,0,0,0-6.425-6.425,6.425,6.425,0,0,0-6.425,6.425,6.424,6.424,0,0,0,6.425,6.425,6.425,6.425,0,0,0,6.425-6.425" fill="#d3dbeb"/>
      <path id="path1014" d="M800.093-900.132a5.268,5.268,0,0,0-5.267-5.267,5.267,5.267,0,0,0-5.267,5.267,5.267,5.267,0,0,0,5.267,5.267,5.268,5.268,0,0,0,5.267-5.267" fill="#d3dbeb"/>
      <path id="path1016" d="M413.427-944.022a5.266,5.266,0,0,0-5.267-5.265,5.266,5.266,0,0,0-5.267,5.265,5.266,5.266,0,0,0,5.267,5.267,5.267,5.267,0,0,0,5.267-5.267" fill="#6d605d"/>
      <path id="path1018" d="M703.34-648.869c-.917,1,.292,1.717,2.7,1.6s5.1-1.023,6.021-2.023-.291-1.717-2.7-1.6-5.1,1.024-6.021,2.024" fill="#bec6db"/>
      <path id="path1020" d="M733.164-648.869c-.917,1,.292,1.717,2.7,1.6s5.1-1.023,6.021-2.023-.291-1.717-2.7-1.6-5.1,1.024-6.021,2.024" fill="#bec6db"/>
      <path id="path1022" d="M717.712-648.869c-.917,1,.292,1.717,2.7,1.6s5.1-1.023,6.021-2.023-.292-1.717-2.7-1.6-5.1,1.024-6.021,2.024" fill="#bec6db"/>
      <path id="path1024" d="M363.892-322.755c-5.616,0-9.8-1.663-12.448-4.939-6.3-7.807-2.987-23.109,1.6-44.288,2.349-10.861,5.013-23.171,6.735-36.291,6.1-46.5,8.819-82.369,8.819-116.31h5.333c0,34.183-2.735,70.268-8.864,117-1.751,13.339-4.439,25.763-6.811,36.725-4.108,18.989-7.353,33.988-2.657,39.811,1.6,1.988,4.319,2.955,8.3,2.955v5.333" fill="#3c3b3d"/>
      <path id="path1026" d="M366.747-568.771l-3.9-3.643c7.811-8.352,6.725-26.4,5.768-42.327-.309-5.153-.6-10.02-.6-14.46h5.333c0,4.28.287,9.069.592,14.14,1.021,17,2.18,36.264-7.2,46.289" fill="#3c3b3d"/>
      <path id="path1028" d="M378.948-596.017a4.012,4.012,0,0,1-4,4h-8.529a4.012,4.012,0,0,1-4-4v-66.365a4.012,4.012,0,0,1,4-4h8.529a4.012,4.012,0,0,1,4,4v66.365" fill="#3c3b3d"/>
      <path id="path1030" d="M373.064-621.35a4.012,4.012,0,0,1-4,4h-8.531a4.012,4.012,0,0,1-4-4v-35.7a4.012,4.012,0,0,1,4-4h8.531a4.012,4.012,0,0,1,4,4v35.7" fill="#6d605d"/>
      <path id="path1032" d="M357.576-463.782h25.372V-578.146H357.576Z" fill="#aeb4cb"/>
      <path id="path1034" d="M382.948-463.782h-6.564V-578.147h6.564v114.365" fill="#cad1df"/>
      <path id="path1036" d="M351.562-290.838h86.314V-311.8H351.562v20.961" fill="#bbbab8"/>
      <path id="path1038" d="M351.562-290.838h34.525V-311.8H351.562v20.961" fill="#6d605d"/>
      <path id="path1040" d="M368.375-646.146l-1.369,3.511-9.8,16.543-7.6-8.373,2.667-8.169,14.735-4.941,1.369,1.431" fill="#3c3b3d"/>
      <path id="path1042" d="M363.892-562.8a2.894,2.894,0,0,1,2.893-2.895,2.894,2.894,0,0,1,2.893,2.895,2.893,2.893,0,0,1-2.893,2.893,2.894,2.894,0,0,1-2.893-2.893" fill="#da4a34"/>
      <path id="path1044" d="M363.892-550.381a2.894,2.894,0,0,1,2.893-2.895,2.894,2.894,0,0,1,2.893,2.895,2.893,2.893,0,0,1-2.893,2.893,2.894,2.894,0,0,1-2.893-2.893" fill="#6492d4"/>
      <g id="g1046">
        <g id="g1048" clip-path="url(#clip-path)">
          <path id="path1054" d="M360.947-536.244h12.118v-3.311H360.947Z" fill="#898f9f"/>
        </g>
      </g>
      <path id="path1056" d="M360.947-529.577h12.118v-3.311H360.947Z" fill="#898f9f"/>
      <path id="path1058" d="M360.947-522.911h12.118v-3.311H360.947Z" fill="#898f9f"/>
      <path id="path1060" d="M360.947-516.244h12.118v-3.311H360.947Z" fill="#898f9f"/>
      <path id="path1062" d="M360.947-509.577h12.118v-3.311H360.947Z" fill="#898f9f"/>
      <path id="path1064" d="M204.161-302.77H177.006v-18.639h27.155v18.639" fill="#95481d"/>
      <path id="path1066" d="M267.035-302.77H239.881v-18.639h27.155v18.639" fill="#95481d"/>
      <path id="path1068" d="M151.366-550.408a10.811,10.811,0,0,1-11.528-10.044l-4.181-60.655c-.656-9.508,1.809-23.225,5.733-31.908l22.527-49.844a10.809,10.809,0,0,1,14.3-5.4,10.814,10.814,0,0,1,5.4,14.307l-22.527,49.845c-2.429,5.373-4.272,15.628-3.867,21.513l4.181,60.653a10.813,10.813,0,0,1-10.041,11.532" fill="#f9a7a2"/>
      <path id="path1070" d="M157.17-624.356a60.49,60.49,0,0,1,2.081-14.387h0a60.509,60.509,0,0,0-2.081,14.387M149.4-670.744h0" fill="#f4b3c9"/>
      <path id="path1072" d="M155.289-551.448c-3.392-1.629,2.16.353,1.883-3.671l-4.181-60.655c-.656-9.508,1.809-23.225,5.733-31.908l.528-1.169v10.108a60.49,60.49,0,0,0-2.081,14.387c0,.62.019,1.211.056,1.763l2.025,29.381v21.669h0v16.852a10.865,10.865,0,0,1-3.963,3.243m3.963-109.021L149.4-670.744h0l9.848-13.264v23.539" fill="#f38799"/>
      <path id="path1074" d="M173.073-659.178l-26.808-13.1,15.324-39.411c2.953-7.52,12.723-9.217,20.241-6.263l11.624,7.792-20.381,50.979" fill="#f9b010"/>
      <path id="path1076" d="M168.682-547.385a17.362,17.362,0,0,0-19.3-15.177,17.36,17.36,0,0,0-15.176,19.3,17.361,17.361,0,0,0,19.3,15.177,17.359,17.359,0,0,0,15.175-19.3" fill="#f9a7a2"/>
      <path id="path1078" d="M296.323-285.225v-13.931a11.245,11.245,0,0,0-11.212-11.212h-43.16a11.245,11.245,0,0,0-11.211,11.212v13.931h65.583" fill="#bc752a"/>
      <path id="path1080" d="M273.315-314.359l-42.587-.263c.579-93.446-11.337-147.288-19.223-182.914-4.271-19.3-7.644-34.537-7.644-49.081H246.45c0,9.887,2.784,22.467,6.637,39.879,8.3,37.489,20.836,94.144,20.228,192.38" fill="#497bc7"/>
      <path id="path1082" d="M204.327-712.668a15.9,15.9,0,0,1-15.9-15.9v-38.157a15.9,15.9,0,0,1,15.9-15.9,15.9,15.9,0,0,1,15.9,15.9v38.157a15.9,15.9,0,0,1-15.9,15.9" fill="#f9a7a2"/>
      <path id="path1084" d="M216.766-285.225v-13.931a11.245,11.245,0,0,0-11.212-11.212H175.728a11.244,11.244,0,0,0-11.211,11.212v13.931h52.249" fill="#aa5628"/>
      <path id="path1086" d="M168.506-314.49V-529.484A21.3,21.3,0,0,1,189.8-550.779a21.294,21.294,0,0,1,21.293,21.295V-314.49H168.506" fill="#3a71c1"/>
      <path id="path1088" d="M178.426-770.954a25.514,25.514,0,0,0,25.439,25.44h15.152a25.514,25.514,0,0,0,25.439-25.44v-40.295c0-13.991-11.447-10.46-25.439-10.46H203.865c-13.991,0-25.439,3.447-25.439,17.439v33.316" fill="#f9a7a2"/>
      <path id="path1090" d="M220.227-745.526v-.017l.18-.009-.18.027m13.623-4.793a25.57,25.57,0,0,0,10.011-15.168,22.925,22.925,0,0,1-10.011,15.168m10.605-60.929c0-9.3-5.056-10.857-12.555-10.857q-.94,0-1.931.029v-5.28c12.611,1.477,14.485,3.117,14.485,16.108" fill="#f9d3e1"/>
      <path id="path1092" d="M211.807-744.956q-1.732,0-3.583-.085a14.2,14.2,0,0,0,3.4-.473h7.392c.405,0,.809-.011,1.211-.029v.017a58.392,58.392,0,0,1-8.42.571m-3.725-.085a8.119,8.119,0,0,1-1.223-.076c.461.029.915.055,1.365.076h-.143" fill="#f7949d"/>
      <path id="path1094" d="M219.017-745.514h-7.392c6.767-1.775,18.345-9.809,18.345-44.021v-32.541q.99-.028,1.931-.029c7.5,0,12.555,1.56,12.555,10.857h0V-771.7a31.671,31.671,0,0,1-.595,6.213A25.57,25.57,0,0,1,233.85-750.32a33.1,33.1,0,0,1-13.443,4.767l-.18.009c-.4.019-.805.029-1.211.029" fill="#f7949d"/>
      <path id="path1096" d="M219.883-780.026c-.743,0,.272-.005,2.011-.015-.6.009-1.281.015-2.011.015" fill="#f68e9c"/>
      <path id="path1098" d="M178.426-793.013l22.237-9.327v-19.369H178.426v28.7" fill="#df6495"/>
      <path id="path1100" d="M203.865-842.061h15.152c13.992,0,25.439,5.088,25.439,19.08v14.188h-7.515c-12.808,0-11.291,24.041-23.279,38.28-6.76,8.029-28.211,12.528-35.236-1.831v-50.637c0-13.992,11.448-19.08,25.439-19.08" fill="#a24462"/>
      <path id="path1102" d="M159.252-571.543a26.745,26.745,0,0,0,26.667,26.667h33.655a26.745,26.745,0,0,0,26.667-26.667v-129.2c0-14.667-5.217-26.667-19.884-26.667H185.918a26.745,26.745,0,0,0-26.667,26.667v129.2" fill="#fab31f"/>
      <path id="path1104" d="M292.282-622.856c-11.865,0-24.007-7.9-28.629-18.812L237.311-703.83A10.812,10.812,0,0,1,243.049-718a10.813,10.813,0,0,1,14.172,5.737L283.562-650.1c1.221,2.884,5.841,5.769,8.952,5.62l38.175-1.863a10.817,10.817,0,0,1,11.327,10.272,10.812,10.812,0,0,1-10.273,11.325l-38.175,1.863c-.428.021-.856.031-1.285.031" fill="#f9a7a2"/>
      <path id="path1106" d="M270.691-680.477h0m-23.876-.924-.576-1.341v-.017l.576,1.359m7.987-34.4a10.847,10.847,0,0,0-7.541-3.057,10.779,10.779,0,0,0-4.212.859l-.264.116c-.045-.087-.092-.173-.139-.26l.18-.077a10.763,10.763,0,0,1,4.212-.86,10.853,10.853,0,0,1,7.764,3.28" fill="#f4b3c9"/>
      <path id="path1108" d="M246.239-682.742l-9.149-21.311a10.809,10.809,0,0,1,5.556-14.095c.047.087.093.173.139.26a10.812,10.812,0,0,0-5.473,14.057l8.928,21.071v.017" fill="#f2904f"/>
      <path id="path1110" d="M258.911-653.233l-12.1-28.168-.576-1.359-8.928-21.071a10.812,10.812,0,0,1,5.473-14.057l.264-.116a10.78,10.78,0,0,1,4.212-.859A10.847,10.847,0,0,1,254.8-715.8a10.8,10.8,0,0,1,2.2,3.316l11.131,26.057,2.561,5.955h0l-11.78,27.244" fill="#f38799"/>
      <path id="path1112" d="M246.491-622.738v76.745a31.893,31.893,0,0,1-31.8,31.8H191.05a31.892,31.892,0,0,1-31.8-31.8v-76.745h87.24" fill="#497bc7"/>
      <path id="path1114" d="M163.357-558.209a13.372,13.372,0,0,0,13.333,13.333h20.321a13.372,13.372,0,0,0,13.333-13.333v-90.537a13.373,13.373,0,0,0-13.333-13.333H176.69a13.373,13.373,0,0,0-13.333,13.333v90.537" fill="#497bc7"/>
      <path id="path1116" d="M244.449-727.354H209.285v15.7h35.164v-15.7" fill="#fab31f"/>
      <path id="path1118" d="M202.545-630.746a4.667,4.667,0,0,1-4.667-4.667V-680.87c0-18.616,3.688-50.124,17.509-50.124H228.23a4.667,4.667,0,0,1,4.667,4.667,4.667,4.667,0,0,1-4.667,4.667H215.586c-2.979,1.639-8.375,16.788-8.375,40.791v45.457a4.667,4.667,0,0,1-4.667,4.667" fill="#497bc7"/>
      <path id="path1120" d="M171.586-644.08a4.667,4.667,0,0,1-4.667-4.667v-38.791a168.3,168.3,0,0,1,2.109-28.216c1.347-7.537,3.527-15.241,9.489-15.241h6.933a4.667,4.667,0,0,1,4.667,4.667,4.667,4.667,0,0,1-4.667,4.667h-5.264c-1.585,3.5-3.935,15.3-3.935,34.124v38.791a4.667,4.667,0,0,1-4.667,4.667" fill="#497bc7"/>
      <path id="path1122" d="M246.239-622.738h0L232.8-697.38l13.436,29.188v45.453" fill="#f59f39"/>
      <path id="path1124" d="M296.323-285.262h.154v-6.983h-.154Z" fill="#a09ea4"/>
      <path id="path1126" d="M230.894-285.262h65.429v-6.983H230.894Z" fill="#75471e"/>
      <path id="path1128" d="M216.919-285.262h-.153v-6.983h.153v6.983m-52.4,0h0v-6.983h0v6.983" fill="#a09ea4"/>
      <path id="path1130" d="M164.517-285.262h52.249v-6.983H164.517Z" fill="#6a361d"/>
      <path id="path1132" d="M360.308-638.205a17.36,17.36,0,0,0-19.3-15.177,17.36,17.36,0,0,0-15.176,19.3,17.361,17.361,0,0,0,19.3,15.177,17.36,17.36,0,0,0,15.176-19.3" fill="#f9a7a2"/>
      <path id="path1134" d="M349.6-640.688a4.667,4.667,0,0,1-4.656-4.424,4.667,4.667,0,0,1,4.417-4.9l15.195-.792a4.662,4.662,0,0,1,4.9,4.419,4.666,4.666,0,0,1-4.417,4.9l-15.195.792-.247.007" fill="#f9a7a2"/>
      <path id="path1136" d="M246.05-667.348l26.332-14.029-16.7-38.849c-3.216-7.411-13.039-8.765-20.449-5.549l-11.344,8.2,22.157,50.232" fill="#fbc936"/>
      <path id="path1138" d="M212.271-716.189c1.5-4.167,4.833-8.195,6.667-9.167s6.84-2,13.667-2,10.833-.059,10.833-.059l-6.985,11.224H212.271" fill="#fbc936"/>
      <path id="path1140" d="M208.013-727.354H189.954c-1.069,0-8.719.484-10.745,8.492h24.157a28.388,28.388,0,0,1,2.288-5.211c1.631-2.809,2.359-3.281,2.359-3.281" fill="#fbc936"/>
      <path id="path1142" d="M210.345-624.072c0,7.049.159,24.176,19.543,24.176s16.352-24.176,16.352-24.176H210.345" fill="#fab31f"/>
      <path id="path1144" d="M159.252-605.557c4.249-5.667,4.232-13.98,4.044-17.181l-4.044-4.813v21.995" fill="#fab31f"/>
    </g>
  </g>
</svg>
